<?xml version="1.0" encoding="utf-8" standalone="no"?>
<!DOCTYPE svg PUBLIC "-//W3C//DTD SVG 1.1//EN"
  "http://www.w3.org/Graphics/SVG/1.1/DTD/svg11.dtd">
<svg height="262.19625pt" version="1.1" viewBox="0 0 400.523437 262.19625" width="400.523437pt" xmlns="http://www.w3.org/2000/svg" xmlns:xlink="http://www.w3.org/1999/xlink">
 <metadata>
  <rdf:RDF xmlns:cc="http://creativecommons.org/ns#" xmlns:dc="http://purl.org/dc/elements/1.1/" xmlns:rdf="http://www.w3.org/1999/02/22-rdf-syntax-ns#">
   <cc:Work>
    <dc:type rdf:resource="http://purl.org/dc/dcmitype/StillImage"/>
    <dc:date>2021-07-30T14:38:50.592662</dc:date>
    <dc:format>image/svg+xml</dc:format>
    <dc:creator>
     <cc:Agent>
      <dc:title>Matplotlib v3.4.2, https://matplotlib.org/</dc:title>
     </cc:Agent>
    </dc:creator>
   </cc:Work>
  </rdf:RDF>
 </metadata>
 <defs>
  <style type="text/css">*{stroke-linecap:butt;stroke-linejoin:round;}</style>
 </defs>
 <g id="figure_1">
  <g id="patch_1">
   <path d="M 0 262.19625 
L 400.523437 262.19625 
L 400.523437 0 
L 0 0 
z
" style="fill:none;"/>
  </g>
  <g id="axes_1">
   <g id="patch_2">
    <path d="M 58.523438 224.64 
L 393.323438 224.64 
L 393.323438 7.2 
L 58.523438 7.2 
z
" style="fill:#ffffff;"/>
   </g>
   <g id="matplotlib.axis_1">
    <g id="xtick_1">
     <g id="line2d_1">
      <defs>
       <path d="M 0 0 
L 0 3.5 
" id="m513f0c203d" style="stroke:#000000;stroke-width:0.8;"/>
      </defs>
      <g>
       <use style="stroke:#000000;stroke-width:0.8;" x="83.887074" xlink:href="#m513f0c203d" y="224.64"/>
      </g>
     </g>
     <g id="text_1">
      <!-- −0.2 -->
      <g transform="translate(71.745668 239.238437)scale(0.1 -0.1)">
       <defs>
        <path d="M 678 2272 
L 4684 2272 
L 4684 1741 
L 678 1741 
L 678 2272 
z
" id="DejaVuSans-2212" transform="scale(0.015625)"/>
        <path d="M 2034 4250 
Q 1547 4250 1301 3770 
Q 1056 3291 1056 2328 
Q 1056 1369 1301 889 
Q 1547 409 2034 409 
Q 2525 409 2770 889 
Q 3016 1369 3016 2328 
Q 3016 3291 2770 3770 
Q 2525 4250 2034 4250 
z
M 2034 4750 
Q 2819 4750 3233 4129 
Q 3647 3509 3647 2328 
Q 3647 1150 3233 529 
Q 2819 -91 2034 -91 
Q 1250 -91 836 529 
Q 422 1150 422 2328 
Q 422 3509 836 4129 
Q 1250 4750 2034 4750 
z
" id="DejaVuSans-30" transform="scale(0.015625)"/>
        <path d="M 684 794 
L 1344 794 
L 1344 0 
L 684 0 
L 684 794 
z
" id="DejaVuSans-2e" transform="scale(0.015625)"/>
        <path d="M 1228 531 
L 3431 531 
L 3431 0 
L 469 0 
L 469 531 
Q 828 903 1448 1529 
Q 2069 2156 2228 2338 
Q 2531 2678 2651 2914 
Q 2772 3150 2772 3378 
Q 2772 3750 2511 3984 
Q 2250 4219 1831 4219 
Q 1534 4219 1204 4116 
Q 875 4013 500 3803 
L 500 4441 
Q 881 4594 1212 4672 
Q 1544 4750 1819 4750 
Q 2544 4750 2975 4387 
Q 3406 4025 3406 3419 
Q 3406 3131 3298 2873 
Q 3191 2616 2906 2266 
Q 2828 2175 2409 1742 
Q 1991 1309 1228 531 
z
" id="DejaVuSans-32" transform="scale(0.015625)"/>
       </defs>
       <use xlink:href="#DejaVuSans-2212"/>
       <use x="83.789062" xlink:href="#DejaVuSans-30"/>
       <use x="147.412109" xlink:href="#DejaVuSans-2e"/>
       <use x="179.199219" xlink:href="#DejaVuSans-32"/>
      </g>
     </g>
    </g>
    <g id="xtick_2">
     <g id="line2d_2">
      <g>
       <use style="stroke:#000000;stroke-width:0.8;" x="124.468892" xlink:href="#m513f0c203d" y="224.64"/>
      </g>
     </g>
     <g id="text_2">
      <!-- 0.0 -->
      <g transform="translate(116.51733 239.238437)scale(0.1 -0.1)">
       <use xlink:href="#DejaVuSans-30"/>
       <use x="63.623047" xlink:href="#DejaVuSans-2e"/>
       <use x="95.410156" xlink:href="#DejaVuSans-30"/>
      </g>
     </g>
    </g>
    <g id="xtick_3">
     <g id="line2d_3">
      <g>
       <use style="stroke:#000000;stroke-width:0.8;" x="165.05071" xlink:href="#m513f0c203d" y="224.64"/>
      </g>
     </g>
     <g id="text_3">
      <!-- 0.2 -->
      <g transform="translate(157.099148 239.238437)scale(0.1 -0.1)">
       <use xlink:href="#DejaVuSans-30"/>
       <use x="63.623047" xlink:href="#DejaVuSans-2e"/>
       <use x="95.410156" xlink:href="#DejaVuSans-32"/>
      </g>
     </g>
    </g>
    <g id="xtick_4">
     <g id="line2d_4">
      <g>
       <use style="stroke:#000000;stroke-width:0.8;" x="205.632528" xlink:href="#m513f0c203d" y="224.64"/>
      </g>
     </g>
     <g id="text_4">
      <!-- 0.4 -->
      <g transform="translate(197.680966 239.238437)scale(0.1 -0.1)">
       <defs>
        <path d="M 2419 4116 
L 825 1625 
L 2419 1625 
L 2419 4116 
z
M 2253 4666 
L 3047 4666 
L 3047 1625 
L 3713 1625 
L 3713 1100 
L 3047 1100 
L 3047 0 
L 2419 0 
L 2419 1100 
L 313 1100 
L 313 1709 
L 2253 4666 
z
" id="DejaVuSans-34" transform="scale(0.015625)"/>
       </defs>
       <use xlink:href="#DejaVuSans-30"/>
       <use x="63.623047" xlink:href="#DejaVuSans-2e"/>
       <use x="95.410156" xlink:href="#DejaVuSans-34"/>
      </g>
     </g>
    </g>
    <g id="xtick_5">
     <g id="line2d_5">
      <g>
       <use style="stroke:#000000;stroke-width:0.8;" x="246.214347" xlink:href="#m513f0c203d" y="224.64"/>
      </g>
     </g>
     <g id="text_5">
      <!-- 0.6 -->
      <g transform="translate(238.262784 239.238437)scale(0.1 -0.1)">
       <defs>
        <path d="M 2113 2584 
Q 1688 2584 1439 2293 
Q 1191 2003 1191 1497 
Q 1191 994 1439 701 
Q 1688 409 2113 409 
Q 2538 409 2786 701 
Q 3034 994 3034 1497 
Q 3034 2003 2786 2293 
Q 2538 2584 2113 2584 
z
M 3366 4563 
L 3366 3988 
Q 3128 4100 2886 4159 
Q 2644 4219 2406 4219 
Q 1781 4219 1451 3797 
Q 1122 3375 1075 2522 
Q 1259 2794 1537 2939 
Q 1816 3084 2150 3084 
Q 2853 3084 3261 2657 
Q 3669 2231 3669 1497 
Q 3669 778 3244 343 
Q 2819 -91 2113 -91 
Q 1303 -91 875 529 
Q 447 1150 447 2328 
Q 447 3434 972 4092 
Q 1497 4750 2381 4750 
Q 2619 4750 2861 4703 
Q 3103 4656 3366 4563 
z
" id="DejaVuSans-36" transform="scale(0.015625)"/>
       </defs>
       <use xlink:href="#DejaVuSans-30"/>
       <use x="63.623047" xlink:href="#DejaVuSans-2e"/>
       <use x="95.410156" xlink:href="#DejaVuSans-36"/>
      </g>
     </g>
    </g>
    <g id="xtick_6">
     <g id="line2d_6">
      <g>
       <use style="stroke:#000000;stroke-width:0.8;" x="286.796165" xlink:href="#m513f0c203d" y="224.64"/>
      </g>
     </g>
     <g id="text_6">
      <!-- 0.8 -->
      <g transform="translate(278.844602 239.238437)scale(0.1 -0.1)">
       <defs>
        <path d="M 2034 2216 
Q 1584 2216 1326 1975 
Q 1069 1734 1069 1313 
Q 1069 891 1326 650 
Q 1584 409 2034 409 
Q 2484 409 2743 651 
Q 3003 894 3003 1313 
Q 3003 1734 2745 1975 
Q 2488 2216 2034 2216 
z
M 1403 2484 
Q 997 2584 770 2862 
Q 544 3141 544 3541 
Q 544 4100 942 4425 
Q 1341 4750 2034 4750 
Q 2731 4750 3128 4425 
Q 3525 4100 3525 3541 
Q 3525 3141 3298 2862 
Q 3072 2584 2669 2484 
Q 3125 2378 3379 2068 
Q 3634 1759 3634 1313 
Q 3634 634 3220 271 
Q 2806 -91 2034 -91 
Q 1263 -91 848 271 
Q 434 634 434 1313 
Q 434 1759 690 2068 
Q 947 2378 1403 2484 
z
M 1172 3481 
Q 1172 3119 1398 2916 
Q 1625 2713 2034 2713 
Q 2441 2713 2670 2916 
Q 2900 3119 2900 3481 
Q 2900 3844 2670 4047 
Q 2441 4250 2034 4250 
Q 1625 4250 1398 4047 
Q 1172 3844 1172 3481 
z
" id="DejaVuSans-38" transform="scale(0.015625)"/>
       </defs>
       <use xlink:href="#DejaVuSans-30"/>
       <use x="63.623047" xlink:href="#DejaVuSans-2e"/>
       <use x="95.410156" xlink:href="#DejaVuSans-38"/>
      </g>
     </g>
    </g>
    <g id="xtick_7">
     <g id="line2d_7">
      <g>
       <use style="stroke:#000000;stroke-width:0.8;" x="327.377983" xlink:href="#m513f0c203d" y="224.64"/>
      </g>
     </g>
     <g id="text_7">
      <!-- 1.0 -->
      <g transform="translate(319.42642 239.238437)scale(0.1 -0.1)">
       <defs>
        <path d="M 794 531 
L 1825 531 
L 1825 4091 
L 703 3866 
L 703 4441 
L 1819 4666 
L 2450 4666 
L 2450 531 
L 3481 531 
L 3481 0 
L 794 0 
L 794 531 
z
" id="DejaVuSans-31" transform="scale(0.015625)"/>
       </defs>
       <use xlink:href="#DejaVuSans-31"/>
       <use x="63.623047" xlink:href="#DejaVuSans-2e"/>
       <use x="95.410156" xlink:href="#DejaVuSans-30"/>
      </g>
     </g>
    </g>
    <g id="xtick_8">
     <g id="line2d_8">
      <g>
       <use style="stroke:#000000;stroke-width:0.8;" x="367.959801" xlink:href="#m513f0c203d" y="224.64"/>
      </g>
     </g>
     <g id="text_8">
      <!-- 1.2 -->
      <g transform="translate(360.008239 239.238437)scale(0.1 -0.1)">
       <use xlink:href="#DejaVuSans-31"/>
       <use x="63.623047" xlink:href="#DejaVuSans-2e"/>
       <use x="95.410156" xlink:href="#DejaVuSans-32"/>
      </g>
     </g>
    </g>
    <g id="text_9">
     <!-- Time (s) -->
     <g transform="translate(205.594531 252.916562)scale(0.1 -0.1)">
      <defs>
       <path d="M -19 4666 
L 3928 4666 
L 3928 4134 
L 2272 4134 
L 2272 0 
L 1638 0 
L 1638 4134 
L -19 4134 
L -19 4666 
z
" id="DejaVuSans-54" transform="scale(0.015625)"/>
       <path d="M 603 3500 
L 1178 3500 
L 1178 0 
L 603 0 
L 603 3500 
z
M 603 4863 
L 1178 4863 
L 1178 4134 
L 603 4134 
L 603 4863 
z
" id="DejaVuSans-69" transform="scale(0.015625)"/>
       <path d="M 3328 2828 
Q 3544 3216 3844 3400 
Q 4144 3584 4550 3584 
Q 5097 3584 5394 3201 
Q 5691 2819 5691 2113 
L 5691 0 
L 5113 0 
L 5113 2094 
Q 5113 2597 4934 2840 
Q 4756 3084 4391 3084 
Q 3944 3084 3684 2787 
Q 3425 2491 3425 1978 
L 3425 0 
L 2847 0 
L 2847 2094 
Q 2847 2600 2669 2842 
Q 2491 3084 2119 3084 
Q 1678 3084 1418 2786 
Q 1159 2488 1159 1978 
L 1159 0 
L 581 0 
L 581 3500 
L 1159 3500 
L 1159 2956 
Q 1356 3278 1631 3431 
Q 1906 3584 2284 3584 
Q 2666 3584 2933 3390 
Q 3200 3197 3328 2828 
z
" id="DejaVuSans-6d" transform="scale(0.015625)"/>
       <path d="M 3597 1894 
L 3597 1613 
L 953 1613 
Q 991 1019 1311 708 
Q 1631 397 2203 397 
Q 2534 397 2845 478 
Q 3156 559 3463 722 
L 3463 178 
Q 3153 47 2828 -22 
Q 2503 -91 2169 -91 
Q 1331 -91 842 396 
Q 353 884 353 1716 
Q 353 2575 817 3079 
Q 1281 3584 2069 3584 
Q 2775 3584 3186 3129 
Q 3597 2675 3597 1894 
z
M 3022 2063 
Q 3016 2534 2758 2815 
Q 2500 3097 2075 3097 
Q 1594 3097 1305 2825 
Q 1016 2553 972 2059 
L 3022 2063 
z
" id="DejaVuSans-65" transform="scale(0.015625)"/>
       <path id="DejaVuSans-20" transform="scale(0.015625)"/>
       <path d="M 1984 4856 
Q 1566 4138 1362 3434 
Q 1159 2731 1159 2009 
Q 1159 1288 1364 580 
Q 1569 -128 1984 -844 
L 1484 -844 
Q 1016 -109 783 600 
Q 550 1309 550 2009 
Q 550 2706 781 3412 
Q 1013 4119 1484 4856 
L 1984 4856 
z
" id="DejaVuSans-28" transform="scale(0.015625)"/>
       <path d="M 2834 3397 
L 2834 2853 
Q 2591 2978 2328 3040 
Q 2066 3103 1784 3103 
Q 1356 3103 1142 2972 
Q 928 2841 928 2578 
Q 928 2378 1081 2264 
Q 1234 2150 1697 2047 
L 1894 2003 
Q 2506 1872 2764 1633 
Q 3022 1394 3022 966 
Q 3022 478 2636 193 
Q 2250 -91 1575 -91 
Q 1294 -91 989 -36 
Q 684 19 347 128 
L 347 722 
Q 666 556 975 473 
Q 1284 391 1588 391 
Q 1994 391 2212 530 
Q 2431 669 2431 922 
Q 2431 1156 2273 1281 
Q 2116 1406 1581 1522 
L 1381 1569 
Q 847 1681 609 1914 
Q 372 2147 372 2553 
Q 372 3047 722 3315 
Q 1072 3584 1716 3584 
Q 2034 3584 2315 3537 
Q 2597 3491 2834 3397 
z
" id="DejaVuSans-73" transform="scale(0.015625)"/>
       <path d="M 513 4856 
L 1013 4856 
Q 1481 4119 1714 3412 
Q 1947 2706 1947 2009 
Q 1947 1309 1714 600 
Q 1481 -109 1013 -844 
L 513 -844 
Q 928 -128 1133 580 
Q 1338 1288 1338 2009 
Q 1338 2731 1133 3434 
Q 928 4138 513 4856 
z
" id="DejaVuSans-29" transform="scale(0.015625)"/>
      </defs>
      <use xlink:href="#DejaVuSans-54"/>
      <use x="57.958984" xlink:href="#DejaVuSans-69"/>
      <use x="85.742188" xlink:href="#DejaVuSans-6d"/>
      <use x="183.154297" xlink:href="#DejaVuSans-65"/>
      <use x="244.677734" xlink:href="#DejaVuSans-20"/>
      <use x="276.464844" xlink:href="#DejaVuSans-28"/>
      <use x="315.478516" xlink:href="#DejaVuSans-73"/>
      <use x="367.578125" xlink:href="#DejaVuSans-29"/>
     </g>
    </g>
    <g id="text_10">
     <!-- 1e−6 -->
     <g transform="translate(366.065625 251.916562)scale(0.1 -0.1)">
      <use xlink:href="#DejaVuSans-31"/>
      <use x="63.623047" xlink:href="#DejaVuSans-65"/>
      <use x="125.146484" xlink:href="#DejaVuSans-2212"/>
      <use x="208.935547" xlink:href="#DejaVuSans-36"/>
     </g>
    </g>
   </g>
   <g id="matplotlib.axis_2">
    <g id="ytick_1">
     <g id="line2d_9">
      <defs>
       <path d="M 0 0 
L -3.5 0 
" id="maeebf8e197" style="stroke:#000000;stroke-width:0.8;"/>
      </defs>
      <g>
       <use style="stroke:#000000;stroke-width:0.8;" x="58.523438" xlink:href="#maeebf8e197" y="215.196406"/>
      </g>
     </g>
     <g id="text_11">
      <!-- −1.00 -->
      <g transform="translate(20.878125 218.995625)scale(0.1 -0.1)">
       <use xlink:href="#DejaVuSans-2212"/>
       <use x="83.789062" xlink:href="#DejaVuSans-31"/>
       <use x="147.412109" xlink:href="#DejaVuSans-2e"/>
       <use x="179.199219" xlink:href="#DejaVuSans-30"/>
       <use x="242.822266" xlink:href="#DejaVuSans-30"/>
      </g>
     </g>
    </g>
    <g id="ytick_2">
     <g id="line2d_10">
      <g>
       <use style="stroke:#000000;stroke-width:0.8;" x="58.523438" xlink:href="#maeebf8e197" y="190.43231"/>
      </g>
     </g>
     <g id="text_12">
      <!-- −0.75 -->
      <g transform="translate(20.878125 194.231529)scale(0.1 -0.1)">
       <defs>
        <path d="M 525 4666 
L 3525 4666 
L 3525 4397 
L 1831 0 
L 1172 0 
L 2766 4134 
L 525 4134 
L 525 4666 
z
" id="DejaVuSans-37" transform="scale(0.015625)"/>
        <path d="M 691 4666 
L 3169 4666 
L 3169 4134 
L 1269 4134 
L 1269 2991 
Q 1406 3038 1543 3061 
Q 1681 3084 1819 3084 
Q 2600 3084 3056 2656 
Q 3513 2228 3513 1497 
Q 3513 744 3044 326 
Q 2575 -91 1722 -91 
Q 1428 -91 1123 -41 
Q 819 9 494 109 
L 494 744 
Q 775 591 1075 516 
Q 1375 441 1709 441 
Q 2250 441 2565 725 
Q 2881 1009 2881 1497 
Q 2881 1984 2565 2268 
Q 2250 2553 1709 2553 
Q 1456 2553 1204 2497 
Q 953 2441 691 2322 
L 691 4666 
z
" id="DejaVuSans-35" transform="scale(0.015625)"/>
       </defs>
       <use xlink:href="#DejaVuSans-2212"/>
       <use x="83.789062" xlink:href="#DejaVuSans-30"/>
       <use x="147.412109" xlink:href="#DejaVuSans-2e"/>
       <use x="179.199219" xlink:href="#DejaVuSans-37"/>
       <use x="242.822266" xlink:href="#DejaVuSans-35"/>
      </g>
     </g>
    </g>
    <g id="ytick_3">
     <g id="line2d_11">
      <g>
       <use style="stroke:#000000;stroke-width:0.8;" x="58.523438" xlink:href="#maeebf8e197" y="165.668214"/>
      </g>
     </g>
     <g id="text_13">
      <!-- −0.50 -->
      <g transform="translate(20.878125 169.467432)scale(0.1 -0.1)">
       <use xlink:href="#DejaVuSans-2212"/>
       <use x="83.789062" xlink:href="#DejaVuSans-30"/>
       <use x="147.412109" xlink:href="#DejaVuSans-2e"/>
       <use x="179.199219" xlink:href="#DejaVuSans-35"/>
       <use x="242.822266" xlink:href="#DejaVuSans-30"/>
      </g>
     </g>
    </g>
    <g id="ytick_4">
     <g id="line2d_12">
      <g>
       <use style="stroke:#000000;stroke-width:0.8;" x="58.523438" xlink:href="#maeebf8e197" y="140.904117"/>
      </g>
     </g>
     <g id="text_14">
      <!-- −0.25 -->
      <g transform="translate(20.878125 144.703336)scale(0.1 -0.1)">
       <use xlink:href="#DejaVuSans-2212"/>
       <use x="83.789062" xlink:href="#DejaVuSans-30"/>
       <use x="147.412109" xlink:href="#DejaVuSans-2e"/>
       <use x="179.199219" xlink:href="#DejaVuSans-32"/>
       <use x="242.822266" xlink:href="#DejaVuSans-35"/>
      </g>
     </g>
    </g>
    <g id="ytick_5">
     <g id="line2d_13">
      <g>
       <use style="stroke:#000000;stroke-width:0.8;" x="58.523438" xlink:href="#maeebf8e197" y="116.140021"/>
      </g>
     </g>
     <g id="text_15">
      <!-- 0.00 -->
      <g transform="translate(29.257813 119.93924)scale(0.1 -0.1)">
       <use xlink:href="#DejaVuSans-30"/>
       <use x="63.623047" xlink:href="#DejaVuSans-2e"/>
       <use x="95.410156" xlink:href="#DejaVuSans-30"/>
       <use x="159.033203" xlink:href="#DejaVuSans-30"/>
      </g>
     </g>
    </g>
    <g id="ytick_6">
     <g id="line2d_14">
      <g>
       <use style="stroke:#000000;stroke-width:0.8;" x="58.523438" xlink:href="#maeebf8e197" y="91.375925"/>
      </g>
     </g>
     <g id="text_16">
      <!-- 0.25 -->
      <g transform="translate(29.257813 95.175144)scale(0.1 -0.1)">
       <use xlink:href="#DejaVuSans-30"/>
       <use x="63.623047" xlink:href="#DejaVuSans-2e"/>
       <use x="95.410156" xlink:href="#DejaVuSans-32"/>
       <use x="159.033203" xlink:href="#DejaVuSans-35"/>
      </g>
     </g>
    </g>
    <g id="ytick_7">
     <g id="line2d_15">
      <g>
       <use style="stroke:#000000;stroke-width:0.8;" x="58.523438" xlink:href="#maeebf8e197" y="66.611829"/>
      </g>
     </g>
     <g id="text_17">
      <!-- 0.50 -->
      <g transform="translate(29.257813 70.411048)scale(0.1 -0.1)">
       <use xlink:href="#DejaVuSans-30"/>
       <use x="63.623047" xlink:href="#DejaVuSans-2e"/>
       <use x="95.410156" xlink:href="#DejaVuSans-35"/>
       <use x="159.033203" xlink:href="#DejaVuSans-30"/>
      </g>
     </g>
    </g>
    <g id="ytick_8">
     <g id="line2d_16">
      <g>
       <use style="stroke:#000000;stroke-width:0.8;" x="58.523438" xlink:href="#maeebf8e197" y="41.847733"/>
      </g>
     </g>
     <g id="text_18">
      <!-- 0.75 -->
      <g transform="translate(29.257813 45.646951)scale(0.1 -0.1)">
       <use xlink:href="#DejaVuSans-30"/>
       <use x="63.623047" xlink:href="#DejaVuSans-2e"/>
       <use x="95.410156" xlink:href="#DejaVuSans-37"/>
       <use x="159.033203" xlink:href="#DejaVuSans-35"/>
      </g>
     </g>
    </g>
    <g id="ytick_9">
     <g id="line2d_17">
      <g>
       <use style="stroke:#000000;stroke-width:0.8;" x="58.523438" xlink:href="#maeebf8e197" y="17.083636"/>
      </g>
     </g>
     <g id="text_19">
      <!-- 1.00 -->
      <g transform="translate(29.257813 20.882855)scale(0.1 -0.1)">
       <use xlink:href="#DejaVuSans-31"/>
       <use x="63.623047" xlink:href="#DejaVuSans-2e"/>
       <use x="95.410156" xlink:href="#DejaVuSans-30"/>
       <use x="159.033203" xlink:href="#DejaVuSans-30"/>
      </g>
     </g>
    </g>
    <g id="text_20">
     <!-- Spin components -->
     <g transform="translate(14.798438 159.306719)rotate(-90)scale(0.1 -0.1)">
      <defs>
       <path d="M 3425 4513 
L 3425 3897 
Q 3066 4069 2747 4153 
Q 2428 4238 2131 4238 
Q 1616 4238 1336 4038 
Q 1056 3838 1056 3469 
Q 1056 3159 1242 3001 
Q 1428 2844 1947 2747 
L 2328 2669 
Q 3034 2534 3370 2195 
Q 3706 1856 3706 1288 
Q 3706 609 3251 259 
Q 2797 -91 1919 -91 
Q 1588 -91 1214 -16 
Q 841 59 441 206 
L 441 856 
Q 825 641 1194 531 
Q 1563 422 1919 422 
Q 2459 422 2753 634 
Q 3047 847 3047 1241 
Q 3047 1584 2836 1778 
Q 2625 1972 2144 2069 
L 1759 2144 
Q 1053 2284 737 2584 
Q 422 2884 422 3419 
Q 422 4038 858 4394 
Q 1294 4750 2059 4750 
Q 2388 4750 2728 4690 
Q 3069 4631 3425 4513 
z
" id="DejaVuSans-53" transform="scale(0.015625)"/>
       <path d="M 1159 525 
L 1159 -1331 
L 581 -1331 
L 581 3500 
L 1159 3500 
L 1159 2969 
Q 1341 3281 1617 3432 
Q 1894 3584 2278 3584 
Q 2916 3584 3314 3078 
Q 3713 2572 3713 1747 
Q 3713 922 3314 415 
Q 2916 -91 2278 -91 
Q 1894 -91 1617 61 
Q 1341 213 1159 525 
z
M 3116 1747 
Q 3116 2381 2855 2742 
Q 2594 3103 2138 3103 
Q 1681 3103 1420 2742 
Q 1159 2381 1159 1747 
Q 1159 1113 1420 752 
Q 1681 391 2138 391 
Q 2594 391 2855 752 
Q 3116 1113 3116 1747 
z
" id="DejaVuSans-70" transform="scale(0.015625)"/>
       <path d="M 3513 2113 
L 3513 0 
L 2938 0 
L 2938 2094 
Q 2938 2591 2744 2837 
Q 2550 3084 2163 3084 
Q 1697 3084 1428 2787 
Q 1159 2491 1159 1978 
L 1159 0 
L 581 0 
L 581 3500 
L 1159 3500 
L 1159 2956 
Q 1366 3272 1645 3428 
Q 1925 3584 2291 3584 
Q 2894 3584 3203 3211 
Q 3513 2838 3513 2113 
z
" id="DejaVuSans-6e" transform="scale(0.015625)"/>
       <path d="M 3122 3366 
L 3122 2828 
Q 2878 2963 2633 3030 
Q 2388 3097 2138 3097 
Q 1578 3097 1268 2742 
Q 959 2388 959 1747 
Q 959 1106 1268 751 
Q 1578 397 2138 397 
Q 2388 397 2633 464 
Q 2878 531 3122 666 
L 3122 134 
Q 2881 22 2623 -34 
Q 2366 -91 2075 -91 
Q 1284 -91 818 406 
Q 353 903 353 1747 
Q 353 2603 823 3093 
Q 1294 3584 2113 3584 
Q 2378 3584 2631 3529 
Q 2884 3475 3122 3366 
z
" id="DejaVuSans-63" transform="scale(0.015625)"/>
       <path d="M 1959 3097 
Q 1497 3097 1228 2736 
Q 959 2375 959 1747 
Q 959 1119 1226 758 
Q 1494 397 1959 397 
Q 2419 397 2687 759 
Q 2956 1122 2956 1747 
Q 2956 2369 2687 2733 
Q 2419 3097 1959 3097 
z
M 1959 3584 
Q 2709 3584 3137 3096 
Q 3566 2609 3566 1747 
Q 3566 888 3137 398 
Q 2709 -91 1959 -91 
Q 1206 -91 779 398 
Q 353 888 353 1747 
Q 353 2609 779 3096 
Q 1206 3584 1959 3584 
z
" id="DejaVuSans-6f" transform="scale(0.015625)"/>
       <path d="M 1172 4494 
L 1172 3500 
L 2356 3500 
L 2356 3053 
L 1172 3053 
L 1172 1153 
Q 1172 725 1289 603 
Q 1406 481 1766 481 
L 2356 481 
L 2356 0 
L 1766 0 
Q 1100 0 847 248 
Q 594 497 594 1153 
L 594 3053 
L 172 3053 
L 172 3500 
L 594 3500 
L 594 4494 
L 1172 4494 
z
" id="DejaVuSans-74" transform="scale(0.015625)"/>
      </defs>
      <use xlink:href="#DejaVuSans-53"/>
      <use x="63.476562" xlink:href="#DejaVuSans-70"/>
      <use x="126.953125" xlink:href="#DejaVuSans-69"/>
      <use x="154.736328" xlink:href="#DejaVuSans-6e"/>
      <use x="218.115234" xlink:href="#DejaVuSans-20"/>
      <use x="249.902344" xlink:href="#DejaVuSans-63"/>
      <use x="304.882812" xlink:href="#DejaVuSans-6f"/>
      <use x="366.064453" xlink:href="#DejaVuSans-6d"/>
      <use x="463.476562" xlink:href="#DejaVuSans-70"/>
      <use x="526.953125" xlink:href="#DejaVuSans-6f"/>
      <use x="588.134766" xlink:href="#DejaVuSans-6e"/>
      <use x="651.513672" xlink:href="#DejaVuSans-65"/>
      <use x="713.037109" xlink:href="#DejaVuSans-6e"/>
      <use x="776.416016" xlink:href="#DejaVuSans-74"/>
      <use x="815.625" xlink:href="#DejaVuSans-73"/>
     </g>
    </g>
   </g>
   <g id="line2d_18">
    <path clip-path="url(#p1e5e6bf85b)" d="M 73.741619 116.140021 
L 165.053445 116.04878 
L 166.525737 70.4803 
L 167.245316 54.320302 
L 167.725035 47.062833 
L 168.011077 44.256245 
L 168.297119 42.647125 
L 168.583161 42.262278 
L 168.869203 43.108117 
L 169.155244 45.170549 
L 169.727328 52.788076 
L 170.299412 64.60939 
L 171.157538 88.443758 
L 173.731916 168.020016 
L 174.304 179.742339 
L 174.876084 187.244261 
L 175.194217 189.39394 
L 175.512351 190.034648 
L 175.830485 189.153188 
L 176.148618 186.767716 
L 176.466752 182.92737 
L 177.10302 171.226833 
L 177.781149 153.815822 
L 179.221131 107.644404 
L 180.301118 74.238669 
L 180.911511 59.254611 
L 181.521904 48.564402 
L 181.827101 45.096171 
L 182.132297 42.974965 
L 182.437494 42.241003 
L 182.74269 42.908203 
L 183.103048 45.481011 
L 183.463406 49.920432 
L 184.184122 63.883798 
L 184.904837 83.332551 
L 185.341619 96.943578 
L 185.384092 95.092154 
L 186.326962 57.181224 
L 187.045937 35.045743 
L 187.525253 24.886928 
L 188.004569 18.985801 
L 188.244228 17.726091 
L 188.483886 17.617697 
L 188.723544 18.661888 
L 189.023304 21.570434 
L 189.622825 32.492299 
L 190.222346 49.506535 
L 191.121627 83.640629 
L 193.264043 174.362941 
L 193.978182 196.585874 
L 194.692321 210.516409 
L 195.04939 213.885167 
L 195.40646 214.71858 
L 195.763529 212.99503 
L 196.120598 208.759225 
L 196.477668 202.121032 
L 197.191807 182.384069 
L 198.113324 147.20325 
L 200.263529 56.423134 
L 200.883946 37.051897 
L 201.510435 23.751881 
L 201.823679 19.811856 
L 202.136923 17.79569 
L 202.450168 17.743648 
L 202.763412 19.656772 
L 203.313673 27.637626 
L 203.787705 38.898263 
L 204.498754 62.193627 
L 205.586751 107.517858 
L 207.121662 172.272108 
L 207.735627 192.320577 
L 208.349591 206.551696 
L 208.701012 211.639141 
L 209.052434 214.327082 
L 209.403855 214.547983 
L 209.755276 212.296292 
L 210.106697 207.628586 
L 210.80954 191.572006 
L 211.512382 167.981853 
L 212.918067 108.141943 
L 214.230593 54.603595 
L 214.951422 33.192644 
L 215.470134 23.078251 
L 215.74857 19.720821 
L 216.027005 17.885403 
L 216.30544 17.600969 
L 216.583876 18.872011 
L 216.862311 21.678463 
L 217.419182 31.696858 
L 217.976053 47.026075 
L 218.605145 69.510467 
L 221.761056 195.340579 
L 222.46237 209.700386 
L 222.813027 213.445519 
L 223.163683 214.756364 
L 223.472114 213.869632 
L 223.780544 211.090488 
L 224.088974 206.472747 
L 224.705835 192.113011 
L 225.322695 171.897273 
L 226.556416 120.461983 
L 228.024558 58.914118 
L 228.905443 32.27167 
L 229.4927 21.606834 
L 229.786328 18.723479 
L 230.133488 17.52247 
L 230.480648 18.739717 
L 230.827809 22.345371 
L 231.174969 28.251015 
L 231.869289 46.330167 
L 232.56361 71.214727 
L 235.716884 196.40377 
L 236.320253 208.861543 
L 236.621938 212.563818 
L 236.923623 214.479618 
L 237.230554 214.558903 
L 237.537485 212.750883 
L 237.844416 209.09023 
L 238.458278 196.525991 
L 239.07214 177.825308 
L 239.992932 141.493109 
L 241.98286 57.36382 
L 242.656059 36.356428 
L 243.329257 22.664318 
L 243.665857 18.983635 
L 244.002456 17.542907 
L 244.304069 18.183105 
L 244.605681 20.637314 
L 244.907294 24.860089 
L 245.510519 38.267229 
L 246.113744 57.416005 
L 247.018582 93.725637 
L 248.901587 173.516335 
L 249.534143 193.790751 
L 250.1667 207.77347 
L 250.482979 212.02865 
L 250.799257 214.331535 
L 251.126647 214.609358 
L 251.454038 212.739255 
L 251.781428 208.762022 
L 252.436208 194.877254 
L 253.090989 174.159928 
L 254.073159 134.330119 
L 255.91714 56.685654 
L 256.523776 37.618864 
L 257.130412 24.406758 
L 257.43373 20.323373 
L 257.737048 18.034456 
L 258.059224 17.615843 
L 258.381401 19.278565 
L 258.703577 22.987497 
L 259.34793 36.189013 
L 259.992283 56.110748 
L 260.958812 94.810169 
L 262.881689 175.840049 
L 263.521969 195.74084 
L 264.162249 209.034577 
L 264.482389 212.834708 
L 264.802529 214.617849 
L 265.108811 214.401149 
L 265.415092 212.308117 
L 265.721374 208.378721 
L 266.333938 195.344603 
L 266.946502 176.289606 
L 267.865347 139.685193 
L 269.795353 58.009771 
L 270.444843 37.462474 
L 271.094332 23.633455 
L 271.419077 19.632863 
L 271.743822 17.703573 
L 272.058923 17.851033 
L 272.374024 19.984811 
L 272.689125 24.061787 
L 273.319327 37.678162 
L 273.949529 57.605025 
L 274.894831 95.713917 
L 276.759722 174.512555 
L 277.379639 194.200465 
L 277.999555 207.812107 
L 278.309513 211.987206 
L 278.619471 214.287943 
L 278.944041 214.639651 
L 279.268611 212.879566 
L 279.593181 209.045423 
L 280.242321 195.526476 
L 280.891461 175.23596 
L 281.865171 136.011951 
L 283.750856 56.571607 
L 284.375302 37.056061 
L 284.999748 23.786151 
L 285.311971 19.842636 
L 285.624194 17.809866 
L 285.937823 17.732233 
L 286.251451 19.624808 
L 286.565079 23.449698 
L 287.192336 36.552964 
L 287.819593 55.997928 
L 288.760478 93.558228 
L 290.687523 174.961979 
L 291.332889 195.222952 
L 291.978256 208.815889 
L 292.300939 212.728713 
L 292.623623 214.594676 
L 292.934769 214.41816 
L 293.245914 212.305007 
L 293.55706 208.296859 
L 294.179352 194.947295 
L 294.801644 175.416534 
L 295.735081 137.985272 
L 297.629446 57.880783 
L 298.262733 37.802398 
L 298.896021 24.085935 
L 299.212664 19.98451 
L 299.529308 17.845331 
L 299.849449 17.72183 
L 300.169591 19.651286 
L 300.489732 23.593452 
L 301.130014 37.146717 
L 301.770297 57.256663 
L 302.730721 95.94855 
L 304.607759 175.139957 
L 305.230518 194.7516 
L 305.853277 208.188196 
L 306.164656 212.239511 
L 306.476035 214.394283 
L 306.79465 214.591837 
L 307.113265 212.75524 
L 307.431879 208.922436 
L 308.069108 195.624584 
L 308.706338 175.791614 
L 309.662181 137.470504 
L 311.569405 56.996767 
L 312.204848 37.081566 
L 312.840291 23.630317 
L 313.158013 19.695798 
L 313.475735 17.742817 
L 313.78817 17.79377 
L 314.100606 19.798775 
L 314.413041 23.717994 
L 315.037913 36.951101 
L 315.662784 56.446596 
L 316.600091 93.953202 
L 318.509852 174.669377 
L 319.148782 194.832511 
L 319.787712 208.491304 
L 320.107177 212.504874 
L 320.426642 214.516786 
L 320.742506 214.497032 
L 321.058369 212.47997 
L 321.374232 208.506562 
L 322.005959 195.05154 
L 322.637685 175.219325 
L 323.585275 137.129479 
L 325.470477 57.503251 
L 326.098212 37.66804 
L 326.725947 24.095156 
L 327.039815 20.017768 
L 327.462239 17.7832 
L 378.105256 17.7832 
L 378.105256 17.7832 
" style="fill:none;stroke:#1f77b4;stroke-linecap:square;stroke-width:1.5;"/>
   </g>
   <g id="line2d_19">
    <path clip-path="url(#p1e5e6bf85b)" d="M 73.741619 17.083636 
L 165.15456 17.144237 
L 165.451712 17.984904 
L 165.748865 19.800395 
L 166.046018 22.558076 
L 166.525737 28.86602 
L 167.245316 42.008138 
L 168.297119 66.440314 
L 170.01337 106.451172 
L 170.871496 120.241161 
L 171.44358 125.563715 
L 171.729622 126.910559 
L 172.015664 127.346264 
L 172.301706 126.863572 
L 172.587748 125.470525 
L 173.159832 120.060965 
L 173.731916 111.476541 
L 174.590042 93.941651 
L 177.421153 29.960689 
L 178.141145 20.863173 
L 178.50114 18.293477 
L 178.861136 17.145384 
L 179.221131 17.449164 
L 179.581127 19.196807 
L 179.941123 22.342238 
L 180.606315 31.527224 
L 181.521904 49.900588 
L 184.184122 111.197861 
L 184.904837 121.615806 
L 185.418858 125.454019 
L 378.105256 125.454019 
L 378.105256 125.454019 
" style="fill:none;stroke:#ff7f0e;stroke-linecap:square;stroke-width:1.5;"/>
   </g>
   <g id="line2d_20">
    <path clip-path="url(#p1e5e6bf85b)" d="M 73.741619 116.140021 
L 165.15456 116.194113 
L 165.451712 116.944491 
L 165.748865 118.564994 
L 166.046018 121.026493 
L 166.525737 126.656949 
L 167.245316 138.387572 
L 168.297119 160.195673 
L 170.01337 195.909269 
L 170.871496 208.21818 
L 171.44358 212.969079 
L 171.729622 214.171268 
L 172.015664 214.560178 
L 172.301706 214.129328 
L 172.587748 212.885898 
L 173.159832 208.057337 
L 173.731916 200.394901 
L 174.590042 184.7433 
L 177.421153 127.634047 
L 178.141145 119.513626 
L 178.50114 117.219922 
L 178.861136 116.195137 
L 179.221131 116.46629 
L 179.581127 118.026232 
L 179.941123 120.833836 
L 180.606315 129.032333 
L 181.521904 145.432354 
L 184.184122 200.146152 
L 184.904837 209.445185 
L 185.341619 212.871164 
L 185.384092 212.485258 
L 185.584694 210.186419 
L 186.030055 202.363603 
L 186.56662 188.362299 
L 187.285595 163.170558 
L 188.723544 101.192421 
L 189.922585 53.095644 
L 190.522106 35.112789 
L 191.121627 23.031445 
L 191.478696 19.021832 
L 191.835766 17.531303 
L 192.192835 18.598518 
L 192.549904 22.195796 
L 192.906974 28.229829 
L 193.621113 46.922967 
L 194.335251 72.751033 
L 197.191807 189.195791 
L 197.806151 204.544091 
L 198.420496 213.133318 
L 198.727668 214.666208 
L 199.03484 214.306768 
L 199.342013 212.061902 
L 199.649185 207.974724 
L 200.263529 194.621313 
L 200.883946 175.050872 
L 201.823679 137.265942 
L 203.787705 54.82827 
L 204.498754 33.585757 
L 204.972786 24.010827 
L 205.279768 20.033685 
L 205.586751 17.900119 
L 205.893733 17.651054 
L 206.200715 19.29127 
L 206.507697 22.789302 
L 207.121662 35.056058 
L 207.735627 53.5146 
L 208.701012 91.536391 
L 210.80954 179.665109 
L 211.512382 200.031891 
L 211.863803 207.169643 
L 212.215225 212.020191 
L 212.566646 214.461661 
L 212.918067 214.432709 
L 213.269488 211.934062 
L 213.750041 204.643817 
L 214.230593 193.202918 
L 214.951422 169.480011 
L 216.027005 124.592941 
L 217.697618 55.014673 
L 218.254489 37.682048 
L 218.955802 22.977686 
L 219.306459 19.043094 
L 219.657116 17.537572 
L 220.007773 18.498783 
L 220.358429 21.902681 
L 220.709086 27.664112 
L 221.4104 45.627661 
L 222.111713 70.603101 
L 225.014265 188.954644 
L 225.631126 204.434695 
L 226.247986 213.108987 
L 226.556416 214.662833 
L 226.850045 214.369516 
L 227.143673 212.352033 
L 227.437301 208.645795 
L 228.024558 196.455772 
L 228.611815 178.651548 
L 229.4927 144.227395 
L 231.522129 58.235918 
L 232.21645 36.439483 
L 232.91077 22.412648 
L 233.25793 18.77395 
L 233.60509 17.522819 
L 233.906775 18.399835 
L 234.20846 21.087714 
L 234.510145 25.536659 
L 235.113514 39.356933 
L 235.716884 58.841192 
L 236.923623 108.740767 
L 238.458278 173.267259 
L 239.07214 193.083838 
L 239.686001 207.026737 
L 239.992932 211.442941 
L 240.299863 214.031593 
L 240.636463 214.711517 
L 240.973062 213.118861 
L 241.309661 209.290343 
L 241.646261 203.314231 
L 242.319459 185.51668 
L 243.329257 147.568022 
L 245.510519 55.631717 
L 246.113744 36.913027 
L 246.716969 24.035819 
L 247.018582 20.103455 
L 247.320195 17.949541 
L 247.636473 17.644254 
L 247.952751 19.344344 
L 248.26903 23.015196 
L 248.901587 35.931633 
L 249.534143 55.347001 
L 250.482979 93.100969 
L 252.436208 175.519106 
L 253.090989 195.884099 
L 253.745769 209.329165 
L 254.073159 213.065498 
L 254.40055 214.687584 
L 254.703868 214.272069 
L 255.007186 212.018723 
L 255.310504 207.969746 
L 255.91714 194.820426 
L 256.523776 175.804549 
L 257.43373 139.476644 
L 259.34793 58.405589 
L 259.992283 37.897355 
L 260.636636 23.965746 
L 260.958812 19.856762 
L 261.280989 17.781773 
L 261.601129 17.778047 
L 261.921269 19.82609 
L 262.241409 23.88318 
L 262.881689 37.645846 
L 263.521969 57.923712 
L 264.482389 96.760477 
L 266.333938 174.894285 
L 266.946502 194.290241 
L 267.559065 207.745467 
L 267.865347 211.905643 
L 268.171629 214.237141 
L 268.496374 214.662825 
L 268.821119 212.973947 
L 269.145864 209.206755 
L 269.795353 195.803713 
L 270.444843 175.598187 
L 271.419077 136.432841 
L 273.319327 56.397516 
L 273.949529 36.773248 
L 274.57973 23.532249 
L 274.894831 19.660983 
L 275.209932 17.739459 
L 275.51989 17.789404 
L 275.829848 19.762669 
L 276.139806 23.620664 
L 276.759722 36.653683 
L 277.379639 55.873962 
L 278.309513 92.929074 
L 280.242321 174.648328 
L 280.891461 195.090013 
L 281.540601 208.79736 
L 281.865171 212.73473 
L 282.189741 214.601148 
L 282.501964 214.404602 
L 282.814187 212.25828 
L 283.12641 208.204767 
L 283.750856 194.734141 
L 284.375302 175.056564 
L 285.311971 137.406088 
L 287.192336 57.904874 
L 287.819593 37.984018 
L 288.44685 24.290831 
L 288.760478 20.142652 
L 289.074106 17.916421 
L 289.39679 17.678567 
L 289.719473 19.527261 
L 290.042156 23.423326 
L 290.687523 36.985679 
L 291.332889 57.222088 
L 292.300939 96.238829 
L 294.179352 175.426163 
L 294.801644 194.954539 
L 295.423935 208.301149 
L 295.735081 212.307678 
L 296.046227 214.41916 
L 296.362871 214.579584 
L 296.679515 212.731151 
L 296.996158 208.911583 
L 297.629446 195.709455 
L 298.262733 176.045366 
L 299.212664 138.038683 
L 301.130014 57.101967 
L 301.770297 37.031335 
L 302.41058 23.526961 
L 302.730721 19.611586 
L 303.050862 17.709749 
L 303.362241 17.829582 
L 303.673621 19.889591 
L 303.985 23.849123 
L 304.607759 37.118239 
L 305.230518 56.594624 
L 306.164656 93.99679 
L 308.069108 174.515009 
L 308.706338 194.67105 
L 309.343567 208.370371 
L 309.662181 212.423175 
L 309.980796 214.486633 
L 310.298518 214.520874 
L 310.616239 212.533787 
L 310.933961 208.566198 
L 311.569405 195.054601 
L 312.204848 175.090816 
L 313.158013 136.730004 
L 315.037913 57.364594 
L 315.662784 37.640779 
L 316.287655 24.124811 
L 316.600091 20.050578 
L 316.912526 17.885555 
L 317.231991 17.690535 
L 317.551456 19.540473 
L 317.870922 23.396945 
L 318.509852 36.769051 
L 319.148782 56.701579 
L 320.107177 95.18169 
L 322.005959 175.287372 
L 322.637685 195.102498 
L 323.269412 208.536314 
L 323.585275 212.498102 
L 323.901138 214.503174 
L 324.215006 214.517057 
L 324.528874 212.558348 
L 324.842741 208.666321 
L 325.470477 195.431676 
L 326.098212 175.86929 
L 327.039815 138.184294 
L 327.462239 123.307505 
L 378.105256 123.307505 
L 378.105256 123.307505 
" style="fill:none;stroke:#2ca02c;stroke-linecap:square;stroke-width:1.5;"/>
   </g>
   <g id="patch_3">
    <path d="M 58.523438 224.64 
L 58.523438 7.2 
" style="fill:none;stroke:#000000;stroke-linecap:square;stroke-linejoin:miter;stroke-width:0.8;"/>
   </g>
   <g id="patch_4">
    <path d="M 393.323438 224.64 
L 393.323438 7.2 
" style="fill:none;stroke:#000000;stroke-linecap:square;stroke-linejoin:miter;stroke-width:0.8;"/>
   </g>
   <g id="patch_5">
    <path d="M 58.523438 224.64 
L 393.323438 224.64 
" style="fill:none;stroke:#000000;stroke-linecap:square;stroke-linejoin:miter;stroke-width:0.8;"/>
   </g>
   <g id="patch_6">
    <path d="M 58.523438 7.2 
L 393.323438 7.2 
" style="fill:none;stroke:#000000;stroke-linecap:square;stroke-linejoin:miter;stroke-width:0.8;"/>
   </g>
   <g id="legend_1">
    <g id="patch_7">
     <path d="M 65.523438 219.64 
L 114.790625 219.64 
Q 116.790625 219.64 116.790625 217.64 
L 116.790625 173.77125 
Q 116.790625 171.77125 114.790625 171.77125 
L 65.523438 171.77125 
Q 63.523438 171.77125 63.523438 173.77125 
L 63.523438 217.64 
Q 63.523438 219.64 65.523438 219.64 
z
" style="fill:#ffffff;opacity:0.8;stroke:#cccccc;stroke-linejoin:miter;"/>
    </g>
    <g id="line2d_21">
     <path d="M 67.523438 179.869687 
L 87.523438 179.869687 
" style="fill:none;stroke:#1f77b4;stroke-linecap:square;stroke-width:1.5;"/>
    </g>
    <g id="line2d_22"/>
    <g id="text_21">
     <!-- S_x -->
     <g transform="translate(95.523438 183.369687)scale(0.1 -0.1)">
      <defs>
       <path d="M 3263 -1063 
L 3263 -1509 
L -63 -1509 
L -63 -1063 
L 3263 -1063 
z
" id="DejaVuSans-5f" transform="scale(0.015625)"/>
       <path d="M 3513 3500 
L 2247 1797 
L 3578 0 
L 2900 0 
L 1881 1375 
L 863 0 
L 184 0 
L 1544 1831 
L 300 3500 
L 978 3500 
L 1906 2253 
L 2834 3500 
L 3513 3500 
z
" id="DejaVuSans-78" transform="scale(0.015625)"/>
      </defs>
      <use xlink:href="#DejaVuSans-53"/>
      <use x="63.476562" xlink:href="#DejaVuSans-5f"/>
      <use x="113.476562" xlink:href="#DejaVuSans-78"/>
     </g>
    </g>
    <g id="line2d_23">
     <path d="M 67.523438 194.825937 
L 87.523438 194.825937 
" style="fill:none;stroke:#ff7f0e;stroke-linecap:square;stroke-width:1.5;"/>
    </g>
    <g id="line2d_24"/>
    <g id="text_22">
     <!-- S_y -->
     <g transform="translate(95.523438 198.325937)scale(0.1 -0.1)">
      <defs>
       <path d="M 2059 -325 
Q 1816 -950 1584 -1140 
Q 1353 -1331 966 -1331 
L 506 -1331 
L 506 -850 
L 844 -850 
Q 1081 -850 1212 -737 
Q 1344 -625 1503 -206 
L 1606 56 
L 191 3500 
L 800 3500 
L 1894 763 
L 2988 3500 
L 3597 3500 
L 2059 -325 
z
" id="DejaVuSans-79" transform="scale(0.015625)"/>
      </defs>
      <use xlink:href="#DejaVuSans-53"/>
      <use x="63.476562" xlink:href="#DejaVuSans-5f"/>
      <use x="113.476562" xlink:href="#DejaVuSans-79"/>
     </g>
    </g>
    <g id="line2d_25">
     <path d="M 67.523438 209.782187 
L 87.523438 209.782187 
" style="fill:none;stroke:#2ca02c;stroke-linecap:square;stroke-width:1.5;"/>
    </g>
    <g id="line2d_26"/>
    <g id="text_23">
     <!-- S_z -->
     <g transform="translate(95.523438 213.282187)scale(0.1 -0.1)">
      <defs>
       <path d="M 353 3500 
L 3084 3500 
L 3084 2975 
L 922 459 
L 3084 459 
L 3084 0 
L 275 0 
L 275 525 
L 2438 3041 
L 353 3041 
L 353 3500 
z
" id="DejaVuSans-7a" transform="scale(0.015625)"/>
      </defs>
      <use xlink:href="#DejaVuSans-53"/>
      <use x="63.476562" xlink:href="#DejaVuSans-5f"/>
      <use x="113.476562" xlink:href="#DejaVuSans-7a"/>
     </g>
    </g>
   </g>
  </g>
 </g>
 <defs>
  <clipPath id="p1e5e6bf85b">
   <rect height="217.44" width="334.8" x="58.523438" y="7.2"/>
  </clipPath>
 </defs>
</svg>