<?xml version="1.0" encoding="utf-8" standalone="no"?>
<!DOCTYPE svg PUBLIC "-//W3C//DTD SVG 1.1//EN"
  "http://www.w3.org/Graphics/SVG/1.1/DTD/svg11.dtd">
<svg height="262.19625pt" version="1.1" viewBox="0 0 400.523437 262.19625" width="400.523437pt" xmlns="http://www.w3.org/2000/svg" xmlns:xlink="http://www.w3.org/1999/xlink">
 <metadata>
  <rdf:RDF xmlns:cc="http://creativecommons.org/ns#" xmlns:dc="http://purl.org/dc/elements/1.1/" xmlns:rdf="http://www.w3.org/1999/02/22-rdf-syntax-ns#">
   <cc:Work>
    <dc:type rdf:resource="http://purl.org/dc/dcmitype/StillImage"/>
    <dc:date>2021-07-30T14:37:53.461361</dc:date>
    <dc:format>image/svg+xml</dc:format>
    <dc:creator>
     <cc:Agent>
      <dc:title>Matplotlib v3.4.2, https://matplotlib.org/</dc:title>
     </cc:Agent>
    </dc:creator>
   </cc:Work>
  </rdf:RDF>
 </metadata>
 <defs>
  <style type="text/css">*{stroke-linecap:butt;stroke-linejoin:round;}</style>
 </defs>
 <g id="figure_1">
  <g id="patch_1">
   <path d="M 0 262.19625 
L 400.523437 262.19625 
L 400.523437 0 
L 0 0 
z
" style="fill:none;"/>
  </g>
  <g id="axes_1">
   <g id="patch_2">
    <path d="M 58.523438 224.64 
L 393.323438 224.64 
L 393.323438 7.2 
L 58.523438 7.2 
z
" style="fill:#ffffff;"/>
   </g>
   <g id="matplotlib.axis_1">
    <g id="xtick_1">
     <g id="line2d_1">
      <defs>
       <path d="M 0 0 
L 0 3.5 
" id="mb01350a1bd" style="stroke:#000000;stroke-width:0.8;"/>
      </defs>
      <g>
       <use style="stroke:#000000;stroke-width:0.8;" x="73.741619" xlink:href="#mb01350a1bd" y="224.64"/>
      </g>
     </g>
     <g id="text_1">
      <!-- −10.0 -->
      <g transform="translate(58.418963 239.238438)scale(0.1 -0.1)">
       <defs>
        <path d="M 678 2272 
L 4684 2272 
L 4684 1741 
L 678 1741 
L 678 2272 
z
" id="DejaVuSans-2212" transform="scale(0.015625)"/>
        <path d="M 794 531 
L 1825 531 
L 1825 4091 
L 703 3866 
L 703 4441 
L 1819 4666 
L 2450 4666 
L 2450 531 
L 3481 531 
L 3481 0 
L 794 0 
L 794 531 
z
" id="DejaVuSans-31" transform="scale(0.015625)"/>
        <path d="M 2034 4250 
Q 1547 4250 1301 3770 
Q 1056 3291 1056 2328 
Q 1056 1369 1301 889 
Q 1547 409 2034 409 
Q 2525 409 2770 889 
Q 3016 1369 3016 2328 
Q 3016 3291 2770 3770 
Q 2525 4250 2034 4250 
z
M 2034 4750 
Q 2819 4750 3233 4129 
Q 3647 3509 3647 2328 
Q 3647 1150 3233 529 
Q 2819 -91 2034 -91 
Q 1250 -91 836 529 
Q 422 1150 422 2328 
Q 422 3509 836 4129 
Q 1250 4750 2034 4750 
z
" id="DejaVuSans-30" transform="scale(0.015625)"/>
        <path d="M 684 794 
L 1344 794 
L 1344 0 
L 684 0 
L 684 794 
z
" id="DejaVuSans-2e" transform="scale(0.015625)"/>
       </defs>
       <use xlink:href="#DejaVuSans-2212"/>
       <use x="83.789062" xlink:href="#DejaVuSans-31"/>
       <use x="147.412109" xlink:href="#DejaVuSans-30"/>
       <use x="211.035156" xlink:href="#DejaVuSans-2e"/>
       <use x="242.822266" xlink:href="#DejaVuSans-30"/>
      </g>
     </g>
    </g>
    <g id="xtick_2">
     <g id="line2d_2">
      <g>
       <use style="stroke:#000000;stroke-width:0.8;" x="111.787074" xlink:href="#mb01350a1bd" y="224.64"/>
      </g>
     </g>
     <g id="text_2">
      <!-- −7.5 -->
      <g transform="translate(99.645668 239.238438)scale(0.1 -0.1)">
       <defs>
        <path d="M 525 4666 
L 3525 4666 
L 3525 4397 
L 1831 0 
L 1172 0 
L 2766 4134 
L 525 4134 
L 525 4666 
z
" id="DejaVuSans-37" transform="scale(0.015625)"/>
        <path d="M 691 4666 
L 3169 4666 
L 3169 4134 
L 1269 4134 
L 1269 2991 
Q 1406 3038 1543 3061 
Q 1681 3084 1819 3084 
Q 2600 3084 3056 2656 
Q 3513 2228 3513 1497 
Q 3513 744 3044 326 
Q 2575 -91 1722 -91 
Q 1428 -91 1123 -41 
Q 819 9 494 109 
L 494 744 
Q 775 591 1075 516 
Q 1375 441 1709 441 
Q 2250 441 2565 725 
Q 2881 1009 2881 1497 
Q 2881 1984 2565 2268 
Q 2250 2553 1709 2553 
Q 1456 2553 1204 2497 
Q 953 2441 691 2322 
L 691 4666 
z
" id="DejaVuSans-35" transform="scale(0.015625)"/>
       </defs>
       <use xlink:href="#DejaVuSans-2212"/>
       <use x="83.789062" xlink:href="#DejaVuSans-37"/>
       <use x="147.412109" xlink:href="#DejaVuSans-2e"/>
       <use x="179.199219" xlink:href="#DejaVuSans-35"/>
      </g>
     </g>
    </g>
    <g id="xtick_3">
     <g id="line2d_3">
      <g>
       <use style="stroke:#000000;stroke-width:0.8;" x="149.832528" xlink:href="#mb01350a1bd" y="224.64"/>
      </g>
     </g>
     <g id="text_3">
      <!-- −5.0 -->
      <g transform="translate(137.691122 239.238438)scale(0.1 -0.1)">
       <use xlink:href="#DejaVuSans-2212"/>
       <use x="83.789062" xlink:href="#DejaVuSans-35"/>
       <use x="147.412109" xlink:href="#DejaVuSans-2e"/>
       <use x="179.199219" xlink:href="#DejaVuSans-30"/>
      </g>
     </g>
    </g>
    <g id="xtick_4">
     <g id="line2d_4">
      <g>
       <use style="stroke:#000000;stroke-width:0.8;" x="187.877983" xlink:href="#mb01350a1bd" y="224.64"/>
      </g>
     </g>
     <g id="text_4">
      <!-- −2.5 -->
      <g transform="translate(175.736577 239.238438)scale(0.1 -0.1)">
       <defs>
        <path d="M 1228 531 
L 3431 531 
L 3431 0 
L 469 0 
L 469 531 
Q 828 903 1448 1529 
Q 2069 2156 2228 2338 
Q 2531 2678 2651 2914 
Q 2772 3150 2772 3378 
Q 2772 3750 2511 3984 
Q 2250 4219 1831 4219 
Q 1534 4219 1204 4116 
Q 875 4013 500 3803 
L 500 4441 
Q 881 4594 1212 4672 
Q 1544 4750 1819 4750 
Q 2544 4750 2975 4387 
Q 3406 4025 3406 3419 
Q 3406 3131 3298 2873 
Q 3191 2616 2906 2266 
Q 2828 2175 2409 1742 
Q 1991 1309 1228 531 
z
" id="DejaVuSans-32" transform="scale(0.015625)"/>
       </defs>
       <use xlink:href="#DejaVuSans-2212"/>
       <use x="83.789062" xlink:href="#DejaVuSans-32"/>
       <use x="147.412109" xlink:href="#DejaVuSans-2e"/>
       <use x="179.199219" xlink:href="#DejaVuSans-35"/>
      </g>
     </g>
    </g>
    <g id="xtick_5">
     <g id="line2d_5">
      <g>
       <use style="stroke:#000000;stroke-width:0.8;" x="225.923438" xlink:href="#mb01350a1bd" y="224.64"/>
      </g>
     </g>
     <g id="text_5">
      <!-- 0.0 -->
      <g transform="translate(217.971875 239.238438)scale(0.1 -0.1)">
       <use xlink:href="#DejaVuSans-30"/>
       <use x="63.623047" xlink:href="#DejaVuSans-2e"/>
       <use x="95.410156" xlink:href="#DejaVuSans-30"/>
      </g>
     </g>
    </g>
    <g id="xtick_6">
     <g id="line2d_6">
      <g>
       <use style="stroke:#000000;stroke-width:0.8;" x="263.968892" xlink:href="#mb01350a1bd" y="224.64"/>
      </g>
     </g>
     <g id="text_6">
      <!-- 2.5 -->
      <g transform="translate(256.01733 239.238438)scale(0.1 -0.1)">
       <use xlink:href="#DejaVuSans-32"/>
       <use x="63.623047" xlink:href="#DejaVuSans-2e"/>
       <use x="95.410156" xlink:href="#DejaVuSans-35"/>
      </g>
     </g>
    </g>
    <g id="xtick_7">
     <g id="line2d_7">
      <g>
       <use style="stroke:#000000;stroke-width:0.8;" x="302.014347" xlink:href="#mb01350a1bd" y="224.64"/>
      </g>
     </g>
     <g id="text_7">
      <!-- 5.0 -->
      <g transform="translate(294.062784 239.238438)scale(0.1 -0.1)">
       <use xlink:href="#DejaVuSans-35"/>
       <use x="63.623047" xlink:href="#DejaVuSans-2e"/>
       <use x="95.410156" xlink:href="#DejaVuSans-30"/>
      </g>
     </g>
    </g>
    <g id="xtick_8">
     <g id="line2d_8">
      <g>
       <use style="stroke:#000000;stroke-width:0.8;" x="340.059801" xlink:href="#mb01350a1bd" y="224.64"/>
      </g>
     </g>
     <g id="text_8">
      <!-- 7.5 -->
      <g transform="translate(332.108239 239.238438)scale(0.1 -0.1)">
       <use xlink:href="#DejaVuSans-37"/>
       <use x="63.623047" xlink:href="#DejaVuSans-2e"/>
       <use x="95.410156" xlink:href="#DejaVuSans-35"/>
      </g>
     </g>
    </g>
    <g id="xtick_9">
     <g id="line2d_9">
      <g>
       <use style="stroke:#000000;stroke-width:0.8;" x="378.105256" xlink:href="#mb01350a1bd" y="224.64"/>
      </g>
     </g>
     <g id="text_9">
      <!-- 10.0 -->
      <g transform="translate(366.972443 239.238438)scale(0.1 -0.1)">
       <use xlink:href="#DejaVuSans-31"/>
       <use x="63.623047" xlink:href="#DejaVuSans-30"/>
       <use x="127.246094" xlink:href="#DejaVuSans-2e"/>
       <use x="159.033203" xlink:href="#DejaVuSans-30"/>
      </g>
     </g>
    </g>
    <g id="text_10">
     <!-- Time (s) -->
     <g transform="translate(205.594531 252.916563)scale(0.1 -0.1)">
      <defs>
       <path d="M -19 4666 
L 3928 4666 
L 3928 4134 
L 2272 4134 
L 2272 0 
L 1638 0 
L 1638 4134 
L -19 4134 
L -19 4666 
z
" id="DejaVuSans-54" transform="scale(0.015625)"/>
       <path d="M 603 3500 
L 1178 3500 
L 1178 0 
L 603 0 
L 603 3500 
z
M 603 4863 
L 1178 4863 
L 1178 4134 
L 603 4134 
L 603 4863 
z
" id="DejaVuSans-69" transform="scale(0.015625)"/>
       <path d="M 3328 2828 
Q 3544 3216 3844 3400 
Q 4144 3584 4550 3584 
Q 5097 3584 5394 3201 
Q 5691 2819 5691 2113 
L 5691 0 
L 5113 0 
L 5113 2094 
Q 5113 2597 4934 2840 
Q 4756 3084 4391 3084 
Q 3944 3084 3684 2787 
Q 3425 2491 3425 1978 
L 3425 0 
L 2847 0 
L 2847 2094 
Q 2847 2600 2669 2842 
Q 2491 3084 2119 3084 
Q 1678 3084 1418 2786 
Q 1159 2488 1159 1978 
L 1159 0 
L 581 0 
L 581 3500 
L 1159 3500 
L 1159 2956 
Q 1356 3278 1631 3431 
Q 1906 3584 2284 3584 
Q 2666 3584 2933 3390 
Q 3200 3197 3328 2828 
z
" id="DejaVuSans-6d" transform="scale(0.015625)"/>
       <path d="M 3597 1894 
L 3597 1613 
L 953 1613 
Q 991 1019 1311 708 
Q 1631 397 2203 397 
Q 2534 397 2845 478 
Q 3156 559 3463 722 
L 3463 178 
Q 3153 47 2828 -22 
Q 2503 -91 2169 -91 
Q 1331 -91 842 396 
Q 353 884 353 1716 
Q 353 2575 817 3079 
Q 1281 3584 2069 3584 
Q 2775 3584 3186 3129 
Q 3597 2675 3597 1894 
z
M 3022 2063 
Q 3016 2534 2758 2815 
Q 2500 3097 2075 3097 
Q 1594 3097 1305 2825 
Q 1016 2553 972 2059 
L 3022 2063 
z
" id="DejaVuSans-65" transform="scale(0.015625)"/>
       <path id="DejaVuSans-20" transform="scale(0.015625)"/>
       <path d="M 1984 4856 
Q 1566 4138 1362 3434 
Q 1159 2731 1159 2009 
Q 1159 1288 1364 580 
Q 1569 -128 1984 -844 
L 1484 -844 
Q 1016 -109 783 600 
Q 550 1309 550 2009 
Q 550 2706 781 3412 
Q 1013 4119 1484 4856 
L 1984 4856 
z
" id="DejaVuSans-28" transform="scale(0.015625)"/>
       <path d="M 2834 3397 
L 2834 2853 
Q 2591 2978 2328 3040 
Q 2066 3103 1784 3103 
Q 1356 3103 1142 2972 
Q 928 2841 928 2578 
Q 928 2378 1081 2264 
Q 1234 2150 1697 2047 
L 1894 2003 
Q 2506 1872 2764 1633 
Q 3022 1394 3022 966 
Q 3022 478 2636 193 
Q 2250 -91 1575 -91 
Q 1294 -91 989 -36 
Q 684 19 347 128 
L 347 722 
Q 666 556 975 473 
Q 1284 391 1588 391 
Q 1994 391 2212 530 
Q 2431 669 2431 922 
Q 2431 1156 2273 1281 
Q 2116 1406 1581 1522 
L 1381 1569 
Q 847 1681 609 1914 
Q 372 2147 372 2553 
Q 372 3047 722 3315 
Q 1072 3584 1716 3584 
Q 2034 3584 2315 3537 
Q 2597 3491 2834 3397 
z
" id="DejaVuSans-73" transform="scale(0.015625)"/>
       <path d="M 513 4856 
L 1013 4856 
Q 1481 4119 1714 3412 
Q 1947 2706 1947 2009 
Q 1947 1309 1714 600 
Q 1481 -109 1013 -844 
L 513 -844 
Q 928 -128 1133 580 
Q 1338 1288 1338 2009 
Q 1338 2731 1133 3434 
Q 928 4138 513 4856 
z
" id="DejaVuSans-29" transform="scale(0.015625)"/>
      </defs>
      <use xlink:href="#DejaVuSans-54"/>
      <use x="57.958984" xlink:href="#DejaVuSans-69"/>
      <use x="85.742188" xlink:href="#DejaVuSans-6d"/>
      <use x="183.154297" xlink:href="#DejaVuSans-65"/>
      <use x="244.677734" xlink:href="#DejaVuSans-20"/>
      <use x="276.464844" xlink:href="#DejaVuSans-28"/>
      <use x="315.478516" xlink:href="#DejaVuSans-73"/>
      <use x="367.578125" xlink:href="#DejaVuSans-29"/>
     </g>
    </g>
   </g>
   <g id="matplotlib.axis_2">
    <g id="ytick_1">
     <g id="line2d_10">
      <defs>
       <path d="M 0 0 
L -3.5 0 
" id="m80a77fcbd3" style="stroke:#000000;stroke-width:0.8;"/>
      </defs>
      <g>
       <use style="stroke:#000000;stroke-width:0.8;" x="58.523438" xlink:href="#m80a77fcbd3" y="214.756422"/>
      </g>
     </g>
     <g id="text_11">
      <!-- −1.00 -->
      <g transform="translate(20.878125 218.55564)scale(0.1 -0.1)">
       <use xlink:href="#DejaVuSans-2212"/>
       <use x="83.789062" xlink:href="#DejaVuSans-31"/>
       <use x="147.412109" xlink:href="#DejaVuSans-2e"/>
       <use x="179.199219" xlink:href="#DejaVuSans-30"/>
       <use x="242.822266" xlink:href="#DejaVuSans-30"/>
      </g>
     </g>
    </g>
    <g id="ytick_2">
     <g id="line2d_11">
      <g>
       <use style="stroke:#000000;stroke-width:0.8;" x="58.523438" xlink:href="#m80a77fcbd3" y="190.047324"/>
      </g>
     </g>
     <g id="text_12">
      <!-- −0.75 -->
      <g transform="translate(20.878125 193.846542)scale(0.1 -0.1)">
       <use xlink:href="#DejaVuSans-2212"/>
       <use x="83.789062" xlink:href="#DejaVuSans-30"/>
       <use x="147.412109" xlink:href="#DejaVuSans-2e"/>
       <use x="179.199219" xlink:href="#DejaVuSans-37"/>
       <use x="242.822266" xlink:href="#DejaVuSans-35"/>
      </g>
     </g>
    </g>
    <g id="ytick_3">
     <g id="line2d_12">
      <g>
       <use style="stroke:#000000;stroke-width:0.8;" x="58.523438" xlink:href="#m80a77fcbd3" y="165.338225"/>
      </g>
     </g>
     <g id="text_13">
      <!-- −0.50 -->
      <g transform="translate(20.878125 169.137444)scale(0.1 -0.1)">
       <use xlink:href="#DejaVuSans-2212"/>
       <use x="83.789062" xlink:href="#DejaVuSans-30"/>
       <use x="147.412109" xlink:href="#DejaVuSans-2e"/>
       <use x="179.199219" xlink:href="#DejaVuSans-35"/>
       <use x="242.822266" xlink:href="#DejaVuSans-30"/>
      </g>
     </g>
    </g>
    <g id="ytick_4">
     <g id="line2d_13">
      <g>
       <use style="stroke:#000000;stroke-width:0.8;" x="58.523438" xlink:href="#m80a77fcbd3" y="140.629127"/>
      </g>
     </g>
     <g id="text_14">
      <!-- −0.25 -->
      <g transform="translate(20.878125 144.428346)scale(0.1 -0.1)">
       <use xlink:href="#DejaVuSans-2212"/>
       <use x="83.789062" xlink:href="#DejaVuSans-30"/>
       <use x="147.412109" xlink:href="#DejaVuSans-2e"/>
       <use x="179.199219" xlink:href="#DejaVuSans-32"/>
       <use x="242.822266" xlink:href="#DejaVuSans-35"/>
      </g>
     </g>
    </g>
    <g id="ytick_5">
     <g id="line2d_14">
      <g>
       <use style="stroke:#000000;stroke-width:0.8;" x="58.523438" xlink:href="#m80a77fcbd3" y="115.920029"/>
      </g>
     </g>
     <g id="text_15">
      <!-- 0.00 -->
      <g transform="translate(29.257813 119.719248)scale(0.1 -0.1)">
       <use xlink:href="#DejaVuSans-30"/>
       <use x="63.623047" xlink:href="#DejaVuSans-2e"/>
       <use x="95.410156" xlink:href="#DejaVuSans-30"/>
       <use x="159.033203" xlink:href="#DejaVuSans-30"/>
      </g>
     </g>
    </g>
    <g id="ytick_6">
     <g id="line2d_15">
      <g>
       <use style="stroke:#000000;stroke-width:0.8;" x="58.523438" xlink:href="#m80a77fcbd3" y="91.210931"/>
      </g>
     </g>
     <g id="text_16">
      <!-- 0.25 -->
      <g transform="translate(29.257813 95.01015)scale(0.1 -0.1)">
       <use xlink:href="#DejaVuSans-30"/>
       <use x="63.623047" xlink:href="#DejaVuSans-2e"/>
       <use x="95.410156" xlink:href="#DejaVuSans-32"/>
       <use x="159.033203" xlink:href="#DejaVuSans-35"/>
      </g>
     </g>
    </g>
    <g id="ytick_7">
     <g id="line2d_16">
      <g>
       <use style="stroke:#000000;stroke-width:0.8;" x="58.523438" xlink:href="#m80a77fcbd3" y="66.501833"/>
      </g>
     </g>
     <g id="text_17">
      <!-- 0.50 -->
      <g transform="translate(29.257813 70.301051)scale(0.1 -0.1)">
       <use xlink:href="#DejaVuSans-30"/>
       <use x="63.623047" xlink:href="#DejaVuSans-2e"/>
       <use x="95.410156" xlink:href="#DejaVuSans-35"/>
       <use x="159.033203" xlink:href="#DejaVuSans-30"/>
      </g>
     </g>
    </g>
    <g id="ytick_8">
     <g id="line2d_17">
      <g>
       <use style="stroke:#000000;stroke-width:0.8;" x="58.523438" xlink:href="#m80a77fcbd3" y="41.792735"/>
      </g>
     </g>
     <g id="text_18">
      <!-- 0.75 -->
      <g transform="translate(29.257813 45.591953)scale(0.1 -0.1)">
       <use xlink:href="#DejaVuSans-30"/>
       <use x="63.623047" xlink:href="#DejaVuSans-2e"/>
       <use x="95.410156" xlink:href="#DejaVuSans-37"/>
       <use x="159.033203" xlink:href="#DejaVuSans-35"/>
      </g>
     </g>
    </g>
    <g id="ytick_9">
     <g id="line2d_18">
      <g>
       <use style="stroke:#000000;stroke-width:0.8;" x="58.523438" xlink:href="#m80a77fcbd3" y="17.083636"/>
      </g>
     </g>
     <g id="text_19">
      <!-- 1.00 -->
      <g transform="translate(29.257813 20.882855)scale(0.1 -0.1)">
       <use xlink:href="#DejaVuSans-31"/>
       <use x="63.623047" xlink:href="#DejaVuSans-2e"/>
       <use x="95.410156" xlink:href="#DejaVuSans-30"/>
       <use x="159.033203" xlink:href="#DejaVuSans-30"/>
      </g>
     </g>
    </g>
    <g id="text_20">
     <!-- Spin components -->
     <g transform="translate(14.798438 159.306719)rotate(-90)scale(0.1 -0.1)">
      <defs>
       <path d="M 3425 4513 
L 3425 3897 
Q 3066 4069 2747 4153 
Q 2428 4238 2131 4238 
Q 1616 4238 1336 4038 
Q 1056 3838 1056 3469 
Q 1056 3159 1242 3001 
Q 1428 2844 1947 2747 
L 2328 2669 
Q 3034 2534 3370 2195 
Q 3706 1856 3706 1288 
Q 3706 609 3251 259 
Q 2797 -91 1919 -91 
Q 1588 -91 1214 -16 
Q 841 59 441 206 
L 441 856 
Q 825 641 1194 531 
Q 1563 422 1919 422 
Q 2459 422 2753 634 
Q 3047 847 3047 1241 
Q 3047 1584 2836 1778 
Q 2625 1972 2144 2069 
L 1759 2144 
Q 1053 2284 737 2584 
Q 422 2884 422 3419 
Q 422 4038 858 4394 
Q 1294 4750 2059 4750 
Q 2388 4750 2728 4690 
Q 3069 4631 3425 4513 
z
" id="DejaVuSans-53" transform="scale(0.015625)"/>
       <path d="M 1159 525 
L 1159 -1331 
L 581 -1331 
L 581 3500 
L 1159 3500 
L 1159 2969 
Q 1341 3281 1617 3432 
Q 1894 3584 2278 3584 
Q 2916 3584 3314 3078 
Q 3713 2572 3713 1747 
Q 3713 922 3314 415 
Q 2916 -91 2278 -91 
Q 1894 -91 1617 61 
Q 1341 213 1159 525 
z
M 3116 1747 
Q 3116 2381 2855 2742 
Q 2594 3103 2138 3103 
Q 1681 3103 1420 2742 
Q 1159 2381 1159 1747 
Q 1159 1113 1420 752 
Q 1681 391 2138 391 
Q 2594 391 2855 752 
Q 3116 1113 3116 1747 
z
" id="DejaVuSans-70" transform="scale(0.015625)"/>
       <path d="M 3513 2113 
L 3513 0 
L 2938 0 
L 2938 2094 
Q 2938 2591 2744 2837 
Q 2550 3084 2163 3084 
Q 1697 3084 1428 2787 
Q 1159 2491 1159 1978 
L 1159 0 
L 581 0 
L 581 3500 
L 1159 3500 
L 1159 2956 
Q 1366 3272 1645 3428 
Q 1925 3584 2291 3584 
Q 2894 3584 3203 3211 
Q 3513 2838 3513 2113 
z
" id="DejaVuSans-6e" transform="scale(0.015625)"/>
       <path d="M 3122 3366 
L 3122 2828 
Q 2878 2963 2633 3030 
Q 2388 3097 2138 3097 
Q 1578 3097 1268 2742 
Q 959 2388 959 1747 
Q 959 1106 1268 751 
Q 1578 397 2138 397 
Q 2388 397 2633 464 
Q 2878 531 3122 666 
L 3122 134 
Q 2881 22 2623 -34 
Q 2366 -91 2075 -91 
Q 1284 -91 818 406 
Q 353 903 353 1747 
Q 353 2603 823 3093 
Q 1294 3584 2113 3584 
Q 2378 3584 2631 3529 
Q 2884 3475 3122 3366 
z
" id="DejaVuSans-63" transform="scale(0.015625)"/>
       <path d="M 1959 3097 
Q 1497 3097 1228 2736 
Q 959 2375 959 1747 
Q 959 1119 1226 758 
Q 1494 397 1959 397 
Q 2419 397 2687 759 
Q 2956 1122 2956 1747 
Q 2956 2369 2687 2733 
Q 2419 3097 1959 3097 
z
M 1959 3584 
Q 2709 3584 3137 3096 
Q 3566 2609 3566 1747 
Q 3566 888 3137 398 
Q 2709 -91 1959 -91 
Q 1206 -91 779 398 
Q 353 888 353 1747 
Q 353 2609 779 3096 
Q 1206 3584 1959 3584 
z
" id="DejaVuSans-6f" transform="scale(0.015625)"/>
       <path d="M 1172 4494 
L 1172 3500 
L 2356 3500 
L 2356 3053 
L 1172 3053 
L 1172 1153 
Q 1172 725 1289 603 
Q 1406 481 1766 481 
L 2356 481 
L 2356 0 
L 1766 0 
Q 1100 0 847 248 
Q 594 497 594 1153 
L 594 3053 
L 172 3053 
L 172 3500 
L 594 3500 
L 594 4494 
L 1172 4494 
z
" id="DejaVuSans-74" transform="scale(0.015625)"/>
      </defs>
      <use xlink:href="#DejaVuSans-53"/>
      <use x="63.476562" xlink:href="#DejaVuSans-70"/>
      <use x="126.953125" xlink:href="#DejaVuSans-69"/>
      <use x="154.736328" xlink:href="#DejaVuSans-6e"/>
      <use x="218.115234" xlink:href="#DejaVuSans-20"/>
      <use x="249.902344" xlink:href="#DejaVuSans-63"/>
      <use x="304.882812" xlink:href="#DejaVuSans-6f"/>
      <use x="366.064453" xlink:href="#DejaVuSans-6d"/>
      <use x="463.476562" xlink:href="#DejaVuSans-70"/>
      <use x="526.953125" xlink:href="#DejaVuSans-6f"/>
      <use x="588.134766" xlink:href="#DejaVuSans-6e"/>
      <use x="651.513672" xlink:href="#DejaVuSans-65"/>
      <use x="713.037109" xlink:href="#DejaVuSans-6e"/>
      <use x="776.416016" xlink:href="#DejaVuSans-74"/>
      <use x="815.625" xlink:href="#DejaVuSans-73"/>
     </g>
    </g>
   </g>
   <g id="line2d_19">
    <path clip-path="url(#p4dc2e2ece8)" d="M 73.741619 115.920029 
L 73.801103 115.81562 
L 73.928469 114.955926 
L 74.389712 111.159006 
L 74.502112 111.631385 
L 74.989175 115.893794 
L 75.101575 115.626557 
L 75.288907 113.896053 
L 75.626105 111.134834 
L 75.701038 111.238367 
L 75.850904 112.309595 
L 76.263034 115.874263 
L 76.337967 115.772914 
L 76.487833 114.710795 
L 76.93743 111.119832 
L 77.04983 111.587653 
L 77.57622 115.851864 
L 77.657206 115.599963 
L 77.859995 113.74615 
L 78.18677 111.099541 
L 78.26891 111.193295 
L 78.433189 112.377411 
L 78.830361 115.819561 
L 78.912289 115.748656 
L 79.076144 114.610768 
L 79.488011 111.077025 
L 79.570901 111.173893 
L 79.73668 112.363091 
L 80.137292 115.798371 
L 80.219941 115.724628 
L 80.385239 114.582671 
L 80.800896 111.053963 
L 80.884555 111.153867 
L 81.051874 112.348015 
L 81.456099 115.776633 
L 81.539647 115.699293 
L 81.706743 114.548663 
L 82.126375 111.029695 
L 82.210832 111.135383 
L 82.379746 112.338696 
L 82.787597 115.754915 
L 82.871938 115.671965 
L 83.040622 114.5124 
L 83.464294 111.004766 
L 83.549572 111.116745 
L 83.720127 112.329956 
L 84.131702 115.732582 
L 84.216861 115.643527 
L 84.387178 114.474301 
L 84.81501 110.979167 
L 84.901134 111.097962 
L 85.07338 112.321828 
L 85.488782 115.709582 
L 85.574781 115.613905 
L 85.746781 114.434271 
L 86.178901 110.952889 
L 86.265895 111.079051 
L 86.439885 112.314351 
L 86.859222 115.685859 
L 86.946088 115.583019 
L 87.11982 114.392202 
L 87.55618 110.926037 
L 87.643712 111.058074 
L 87.818778 112.295194 
L 88.241989 115.66006 
L 88.329748 115.555547 
L 88.505267 114.361798 
L 88.946137 110.899196 
L 89.03458 111.033481 
L 89.211464 112.274249 
L 89.638887 115.633551 
L 89.727567 115.526896 
L 89.904928 114.329502 
L 90.351055 110.871152 
L 90.440437 111.010671 
L 90.619199 112.259444 
L 91.050937 115.606778 
L 91.140568 115.4951 
L 91.31983 114.289761 
L 91.770512 110.84239 
L 91.860867 110.986493 
L 92.041578 112.242401 
L 92.477776 115.578938 
L 92.568389 115.462808 
L 92.749614 114.250385 
L 93.204999 110.81283 
L 93.29636 110.960951 
L 93.479081 112.223141 
L 93.919887 115.550008 
L 94.011514 115.429978 
L 94.194768 114.211296 
L 94.655014 110.7824 
L 94.747412 110.93399 
L 94.932208 112.201641 
L 95.377779 115.519953 
L 95.470455 115.396563 
L 95.655806 114.17242 
L 96.121077 110.751031 
L 96.214548 110.905551 
L 96.401488 112.177868 
L 96.851988 115.488734 
L 96.94575 115.36251 
L 97.133273 114.133677 
L 97.603743 110.71865 
L 97.698322 110.875574 
L 97.88748 112.151784 
L 98.343083 115.456304 
L 98.437968 115.327763 
L 98.62774 114.094991 
L 99.055731 110.746466 
L 99.151458 110.718177 
L 99.295047 111.350135 
L 99.851663 115.422606 
L 99.899688 115.403864 
L 100.043765 114.811742 
L 100.621249 110.650553 
L 100.669707 110.684218 
L 100.81508 111.318227 
L 101.378364 115.387576 
L 101.426994 115.368203 
L 101.572884 114.77406 
L 102.157363 110.614679 
L 102.206437 110.648757 
L 102.353658 111.28413 
L 102.923862 115.351143 
L 102.973119 115.331394 
L 103.120892 114.735901 
L 103.712631 110.577477 
L 103.762345 110.61171 
L 103.911484 111.247762 
L 104.488873 115.313222 
L 104.538783 115.293352 
L 104.688512 114.697179 
L 105.287794 110.538857 
L 105.338172 110.572985 
L 105.489304 111.209032 
L 106.07416 115.273723 
L 106.124748 115.253986 
L 106.276513 114.657801 
L 106.883639 110.498722 
L 106.934708 110.532485 
L 107.087913 111.167839 
L 107.680538 115.232541 
L 107.731832 115.213194 
L 107.885717 114.61767 
L 108.501009 110.456969 
L 108.552796 110.490104 
L 108.708159 111.124071 
L 109.308874 115.18956 
L 109.360906 115.170861 
L 109.517 114.576677 
L 110.1408 110.413487 
L 110.193338 110.445728 
L 110.350949 111.077601 
L 110.960099 115.144649 
L 111.0129 115.126863 
L 111.171302 114.534707 
L 111.803978 110.368155 
L 111.857297 110.39923 
L 112.017256 111.028289 
L 112.63521 115.097665 
L 112.688814 115.081057 
L 112.796023 114.771855 
L 113.063815 112.821913 
L 113.437437 110.386001 
L 113.545711 110.350473 
L 113.708121 110.975981 
L 114.335276 115.048442 
L 114.389722 115.033288 
L 114.498612 114.72658 
L 114.770558 112.779363 
L 115.149708 110.338344 
L 115.259692 110.299306 
L 115.424668 110.920501 
L 116.061451 114.9968 
L 116.116778 114.98338 
L 116.227432 114.679686 
L 116.50373 112.735861 
L 116.888666 110.288697 
L 117.000442 110.245561 
L 117.168106 110.861656 
L 117.814978 114.942534 
L 117.87123 114.931137 
L 117.983734 114.630995 
L 118.208742 113.156827 
L 118.655599 110.236896 
L 118.769256 110.189053 
L 118.882913 110.512569 
L 119.163945 112.455704 
L 119.539977 114.800027 
L 119.654426 114.876338 
L 119.768875 114.580307 
L 119.997774 113.11043 
L 120.451906 110.182759 
L 120.567539 110.129575 
L 120.683173 110.448296 
L 120.969052 112.385257 
L 121.351331 114.737095 
L 121.467829 114.818736 
L 121.584326 114.527397 
L 121.817321 113.06252 
L 122.279102 110.126084 
L 122.396817 110.066899 
L 122.514533 110.380194 
L 122.805515 112.310108 
L 123.19437 114.67043 
L 123.313028 114.758048 
L 123.431686 114.472012 
L 123.669002 113.012886 
L 124.138839 110.066646 
L 124.25875 110.000764 
L 124.378662 110.307971 
L 124.618485 111.789366 
L 125.070815 114.599682 
L 125.191758 114.693958 
L 125.3127 114.413865 
L 125.554584 112.961288 
L 126.032919 110.004192 
L 126.155152 109.930881 
L 126.277385 110.231297 
L 126.521852 111.70455 
L 126.982553 114.524453 
L 127.105914 114.6261 
L 127.229276 114.352631 
L 127.475999 112.907457 
L 127.963317 109.938436 
L 128.08801 109.856922 
L 128.212702 110.149794 
L 128.462088 111.613904 
L 128.931651 114.444286 
L 129.057581 114.554059 
L 129.183511 114.287935 
L 129.43537 112.851085 
L 129.932183 109.869102 
L 130.059488 109.778494 
L 130.186792 110.06296 
L 130.441401 111.516757 
L 130.920366 114.358607 
L 131.04903 114.477367 
L 131.177693 114.219418 
L 131.435019 112.791964 
L 131.941744 109.796198 
L 132.071828 109.695061 
L 132.201912 109.969724 
L 132.462081 111.411338 
L 132.951053 114.266412 
L 133.082633 114.39554 
L 133.214213 114.147108 
L 133.477374 112.730809 
L 133.994624 109.719384 
L 134.127674 109.606171 
L 134.260724 109.869508 
L 134.526825 111.296836 
L 135.026329 114.166551 
L 135.161031 114.307946 
L 135.295733 114.070891 
L 135.565137 112.668231 
L 136.093589 109.638628 
L 136.229813 109.511245 
L 136.366036 109.761172 
L 136.638482 111.171311 
L 137.14903 114.057457 
L 137.287084 114.213786 
L 137.425138 113.990746 
L 137.701245 112.605321 
L 138.241642 109.554133 
L 138.381269 109.409671 
L 138.520896 109.643276 
L 138.80015 111.032104 
L 139.322493 113.937668 
L 139.464158 114.111949 
L 139.605823 113.905957 
L 139.818321 112.972613 
L 140.512264 109.338048 
L 140.652145 109.354037 
L 140.861968 110.021309 
L 141.676275 113.996789 
L 141.815876 113.875531 
L 142.025277 113.090679 
L 142.806275 109.1988 
L 142.949888 109.278754 
L 143.165307 110.025818 
L 144.000361 113.880481 
L 144.142661 113.704495 
L 144.356111 112.8634 
L 145.085749 109.133884 
L 145.233198 109.082292 
L 145.380647 109.38562 
L 145.669176 110.778446 
L 146.237923 113.616738 
L 146.383428 113.746751 
L 146.528933 113.536927 
L 146.749361 112.652563 
L 147.50145 108.975534 
L 147.653201 108.959707 
L 147.804951 109.295201 
L 148.09847 110.703296 
L 148.610132 113.31867 
L 148.833517 113.599575 
L 148.982439 113.371027 
L 149.211365 112.456458 
L 149.987073 108.814625 
L 150.14323 108.818493 
L 150.299388 109.169569 
L 150.598555 110.5729 
L 151.126599 113.171175 
L 151.355476 113.440534 
L 151.50806 113.2115 
L 151.747175 112.28329 
L 152.547666 108.648416 
L 152.708453 108.651528 
L 152.866124 108.988609 
L 153.175232 110.376577 
L 153.720158 112.97917 
L 153.954979 113.268266 
L 154.115663 113.05048 
L 154.362894 112.139134 
L 155.189419 108.476228 
L 155.355046 108.454272 
L 155.515169 108.757413 
L 155.835414 110.104069 
L 156.478244 112.923034 
L 156.639147 113.075927 
L 156.810253 112.892133 
L 157.066911 112.022356 
L 157.920932 108.300312 
L 158.089836 108.226911 
L 158.256969 108.479946 
L 158.591235 109.764753 
L 159.257397 112.646382 
L 159.429788 112.852898 
L 159.608114 112.715769 
L 159.875603 111.901558 
L 160.85922 107.998165 
L 161.04902 108.070194 
L 161.238821 108.509292 
L 161.697108 110.526186 
L 162.131076 112.268118 
L 162.315443 112.576561 
L 162.510592 112.527376 
L 162.705741 112.101192 
L 163.091207 110.468915 
L 163.64767 108.092141 
L 163.839937 107.749027 
L 164.038984 107.770357 
L 164.23803 108.164301 
L 164.627216 109.702003 
L 165.170911 111.910808 
L 165.46707 112.314969 
L 165.672614 112.121603 
L 165.980928 111.18359 
L 166.964808 107.470265 
L 167.174577 107.429289 
L 167.384345 107.766457 
L 167.794187 109.236814 
L 168.460506 111.713977 
L 168.678219 111.971783 
L 168.895933 111.836683 
L 169.113646 111.331266 
L 169.638147 109.183444 
L 170.149461 107.3491 
L 170.371862 107.046989 
L 170.594263 107.130806 
L 170.816664 107.578329 
L 171.240403 109.113017 
L 171.844415 111.233365 
L 172.076687 111.553736 
L 172.308958 111.481506 
L 172.54123 111.028743 
L 172.990349 109.392158 
L 173.640894 107.010023 
L 173.878506 106.634043 
L 174.116118 106.641495 
L 174.35373 107.020977 
L 174.805204 108.475497 
L 175.446791 110.643417 
L 175.696881 111.033307 
L 175.946972 111.033143 
L 176.197062 110.642612 
L 176.562748 109.515005 
L 177.491112 106.347408 
L 177.729502 106.062969 
L 177.967892 106.112955 
L 178.206282 106.480389 
L 178.670278 107.846741 
L 179.363606 110.007804 
L 179.719583 110.457887 
L 179.956902 110.382943 
L 180.19422 110.012708 
L 180.568532 108.950986 
L 181.573364 105.719378 
L 181.82735 105.389586 
L 182.081336 105.376043 
L 182.333028 105.665099 
L 182.707125 106.538648 
L 183.712005 109.324011 
L 183.965047 109.619445 
L 184.218089 109.634916 
L 184.490898 109.335163 
L 184.90011 108.366756 
L 186.132749 104.755562 
L 186.407224 104.445705 
L 186.683955 104.434778 
L 186.960686 104.713667 
L 187.375781 105.560588 
L 188.479401 108.218295 
L 188.768949 108.510517 
L 189.072259 108.508325 
L 189.375568 108.188367 
L 189.830533 107.208178 
L 191.206838 103.508575 
L 191.522708 103.130044 
L 191.838579 103.048635 
L 192.15445 103.254646 
L 192.628256 103.996509 
L 193.999973 106.637569 
L 194.404566 106.86401 
L 194.753884 106.726512 
L 195.103202 106.290729 
L 195.627178 105.190893 
L 197.20881 101.39393 
L 197.581753 100.960781 
L 197.954697 100.807832 
L 198.327641 100.92296 
L 198.887056 101.497504 
L 200.51187 103.702516 
L 201.012617 103.88809 
L 201.4736 103.707191 
L 201.894818 103.250938 
L 202.526645 102.13361 
L 204.933839 96.97738 
L 205.651897 96.224738 
L 206.130602 96.008944 
L 206.609307 95.985596 
L 207.327365 96.196259 
L 208.693736 96.730356 
L 209.376922 96.742238 
L 210.060108 96.445857 
L 210.743294 95.803346 
L 211.461562 94.764524 
L 212.591585 92.504355 
L 214.098282 88.751725 
L 221.720124 68.782824 
L 223.524076 64.483554 
L 224.72671 62.351596 
L 225.328028 61.709393 
L 225.929345 61.474482 
L 226.530662 61.75973 
L 227.131979 62.692669 
L 227.733297 64.413464 
L 228.334614 67.071221 
L 228.826739 70.050057 
L 229.318864 73.839789 
L 230.303114 84.139964 
L 231.287363 98.395484 
L 232.106248 113.304504 
L 233.334574 140.033087 
L 235.381785 187.283118 
L 236.20067 201.699677 
L 236.876485 208.977295 
L 237.214393 210.550848 
L 237.552301 210.523249 
L 237.890209 208.751803 
L 238.228117 205.124064 
L 238.566025 199.566469 
L 239.167754 184.844406 
L 239.95922 156.704348 
L 241.014507 108.255593 
L 242.289514 49.77726 
L 242.929279 29.180123 
L 243.358805 21.260236 
L 243.573568 19.436695 
L 243.78833 19.156234 
L 244.003093 20.47972 
L 244.217856 23.441676 
L 244.652917 34.452303 
L 245.093514 52.070298 
L 245.75441 88.387118 
L 247.516799 194.041942 
L 247.957397 208.471552 
L 248.177695 212.261609 
L 248.397994 213.51992 
L 248.618292 212.136943 
L 248.838591 208.074005 
L 249.279188 192.141573 
L 249.940084 151.734985 
L 251.619462 33.061835 
L 252.009983 20.533832 
L 252.270331 18.044262 
L 252.400505 18.682513 
L 252.660853 23.775794 
L 252.945883 35.024232 
L 253.373428 61.720589 
L 254.286466 140.884011 
L 254.93379 191.015371 
L 255.257451 206.789126 
L 255.581113 213.793613 
L 255.742944 213.660579 
L 255.904774 211.034875 
L 256.228436 198.481183 
L 256.713929 163.767282 
L 258.332237 25.082617 
L 258.655899 17.799921 
L 258.817729 18.596024 
L 258.97956 22.40675 
L 259.303222 38.676772 
L 259.788714 80.787785 
L 261.013054 200.113073 
L 261.352528 213.182759 
L 261.465687 214.244664 
L 261.578845 213.577091 
L 261.805161 207.066186 
L 262.157829 184.115211 
L 262.756604 120.281567 
L 263.470297 43.244555 
L 263.822307 21.988297 
L 264.056981 17.557315 
L 264.174317 18.528 
L 264.408991 26.832641 
L 264.760439 53.706368 
L 265.462774 137.700576 
L 266.030638 197.053389 
L 266.355682 212.942072 
L 266.46403 214.339453 
L 266.572378 213.67772 
L 266.789074 206.210765 
L 267.113531 180.979567 
L 267.652333 114.496963 
L 268.288013 39.074532 
L 268.578647 20.979105 
L 268.772402 17.460882 
L 268.86928 18.447963 
L 269.076343 26.653622 
L 269.406901 55.297141 
L 270.122693 151.621492 
L 270.581109 200.974208 
L 270.871773 213.952832 
L 270.968662 214.352808 
L 271.06555 212.72044 
L 271.259326 203.484206 
L 271.538351 177.613022 
L 272.186346 86.434459 
L 272.694273 28.925875 
L 272.984726 17.474792 
L 273.072009 17.847078 
L 273.246574 23.965815 
L 273.508422 45.636302 
L 273.963442 108.270906 
L 274.598774 195.166656 
L 274.91644 213.712273 
L 275.022328 214.397189 
L 275.198051 209.19718 
L 275.477386 185.733269 
L 275.913881 122.982494 
L 276.579829 31.33375 
L 276.867454 17.518413 
L 276.960243 17.822062 
L 277.145821 25.524019 
L 277.424187 53.175898 
L 278.709344 214.382911 
L 278.799799 214.017908 
L 278.980709 206.059334 
L 279.234715 180.095453 
L 279.806645 86.757816 
L 280.228452 30.331168 
L 280.50043 17.37011 
L 280.568424 17.71743 
L 280.704413 22.794276 
L 280.90809 40.678635 
L 281.315137 103.261625 
L 281.987152 203.984589 
L 282.181891 213.991203 
L 282.246805 214.552025 
L 282.376631 211.403917 
L 282.567063 196.884962 
L 282.930701 143.459215 
L 283.658952 28.393352 
L 283.91159 17.293121 
L 283.974749 18.032515 
L 284.101068 23.757778 
L 284.340791 48.916977 
L 284.797147 129.070423 
L 285.283393 202.901315 
L 285.527176 214.57134 
L 285.588121 214.038045 
L 285.710012 208.784448 
L 285.939937 184.829998 
L 286.376576 106.863508 
L 286.903884 26.073026 
L 287.090744 17.396492 
L 287.153031 17.5511 
L 287.277604 22.479913 
L 287.499948 45.509862 
L 287.916225 120.973839 
L 288.424289 203.473963 
L 288.662384 214.593296 
L 288.781432 211.362739 
L 288.960004 195.857484 
L 289.293784 140.376953 
L 289.965699 25.564717 
L 290.151699 17.277112 
L 290.216295 17.913235 
L 290.345486 24.627091 
L 290.592097 55.563952 
L 291.616723 214.560856 
L 291.688378 213.877567 
L 291.831687 205.527269 
L 292.118306 164.596684 
L 292.95231 20.548099 
L 293.083509 17.285368 
L 293.214708 22.248549 
L 293.428385 46.713895 
L 293.885488 139.469171 
L 294.327464 209.006843 
L 294.476376 214.624868 
L 294.575651 212.242387 
L 294.724111 199.774779 
L 295.019222 149.403685 
L 295.698711 23.748172 
L 295.847561 17.256958 
L 295.897177 17.633418 
L 295.99641 22.208355 
L 296.203669 46.96793 
L 296.662095 144.080767 
L 297.059934 208.526262 
L 297.212584 214.635063 
L 297.314352 211.74916 
L 297.507732 191.617057 
L 297.848475 122.828844 
L 298.37571 24.609798 
L 298.507518 17.497957 
L 298.573423 17.552416 
L 298.705232 24.907785 
L 298.945506 60.388728 
L 299.79972 214.09356 
L 299.866603 214.485248 
L 300.000369 207.518826 
L 300.201017 179.463518 
L 301.08794 17.621824 
L 301.139182 17.272081 
L 301.241667 21.302232 
L 301.446637 46.948143 
L 301.877718 145.071222 
L 302.234254 207.652426 
L 302.372208 214.600149 
L 302.418086 214.313233 
L 302.55572 205.694126 
L 302.78511 168.601318 
L 303.525025 20.397352 
L 303.654657 17.486741 
L 303.754328 22.552538 
L 303.95367 50.133766 
L 304.85899 214.597107 
L 304.951724 210.919307 
L 305.137193 187.595995 
L 305.509126 100.356214 
L 305.882055 26.372333 
L 306.068519 17.351183 
L 306.166595 22.042138 
L 306.362748 49.486967 
L 307.255953 214.451387 
L 307.373886 207.57585 
L 307.609751 168.140656 
L 308.357908 17.787458 
L 308.41483 17.2863 
L 308.513613 21.962765 
L 308.681063 44.851504 
L 309.073787 141.997081 
L 309.411386 207.658347 
L 309.526372 214.471651 
L 309.583865 214.227967 
L 309.69885 206.445385 
L 309.915724 168.532114 
L 310.629486 18.351579 
L 310.687819 17.188047 
L 310.804485 22.634416 
L 310.979485 48.743352 
L 311.828747 214.454415 
L 311.925203 209.045737 
L 312.118115 178.451994 
L 312.915013 17.185997 
L 312.991927 19.811817 
L 313.145756 38.648188 
L 313.458514 115.860594 
L 313.870338 207.487931 
L 313.999511 214.673544 
L 314.047016 213.881272 
L 314.189532 200.614685 
L 314.474563 135.779191 
L 314.959188 23.472138 
L 315.068468 17.250579 
L 315.123108 17.89756 
L 315.261186 30.529492 
L 315.537341 93.15805 
L 316.046814 210.306106 
L 316.139574 214.654332 
L 316.191142 213.862511 
L 316.345846 198.081566 
L 316.655254 122.000678 
L 317.069668 24.733244 
L 317.205735 17.180768 
L 317.3001 21.50036 
L 317.488831 51.832573 
L 318.265414 214.447476 
L 318.35508 208.974653 
L 318.53441 178.318284 
L 319.280351 17.197448 
L 319.374634 21.997313 
L 319.563201 54.049837 
L 320.288898 214.687411 
L 320.383191 210.669891 
L 320.571776 179.443708 
L 321.308791 17.213915 
L 321.397559 21.875619 
L 321.575095 52.062854 
L 322.307964 214.619839 
L 322.39673 209.692223 
L 322.57426 178.638044 
L 323.283144 17.161014 
L 323.374114 21.341045 
L 323.556053 52.626517 
L 324.262365 214.692099 
L 324.350507 210.498957 
L 324.526791 180.129287 
L 325.236135 17.196973 
L 325.321962 21.813277 
L 325.493616 52.189303 
L 326.189431 214.690121 
L 326.276343 210.326249 
L 326.450168 179.445213 
L 327.134482 17.155549 
L 327.221024 21.18404 
L 327.394107 51.721664 
L 328.078879 214.692255 
L 328.163024 210.437401 
L 328.331314 180.322336 
L 329.011206 17.163099 
L 329.094876 21.500982 
L 329.262215 51.897641 
L 329.930299 214.701849 
L 329.972321 213.690372 
L 330.098385 198.847165 
L 330.350513 128.958734 
L 330.763521 21.087616 
L 330.845962 17.150731 
L 330.887299 18.16358 
L 331.011309 32.833708 
L 331.259328 101.92833 
L 331.672837 210.881566 
L 331.755542 214.700386 
L 331.796239 213.596156 
L 331.91833 198.828719 
L 332.162511 130.1631 
L 332.571505 21.135745 
L 332.653349 17.148711 
L 332.69405 18.178512 
L 332.816151 32.931022 
L 333.060353 102.231768 
L 333.463301 210.612888 
L 333.5438 214.704762 
L 333.584256 213.756724 
L 333.705625 199.181085 
L 333.948363 129.905769 
L 334.349767 21.145979 
L 334.429978 17.146548 
L 334.469811 18.145428 
L 334.589313 32.696053 
L 334.828315 101.374308 
L 335.227849 210.680517 
L 335.307782 214.707409 
L 335.347342 213.7016 
L 335.466022 199.105587 
L 335.703382 130.289969 
L 336.097904 21.304872 
L 336.176785 17.146225 
L 336.216241 18.074429 
L 336.334609 32.573239 
L 336.571345 101.683662 
L 336.962486 210.552772 
L 337.040638 214.707327 
L 337.079678 213.788494 
L 337.196796 199.380826 
L 337.431032 130.595104 
L 337.820676 21.266053 
L 337.898588 17.143465 
L 337.937218 18.091697 
L 338.05311 32.516759 
L 338.284893 101.099982 
L 338.671258 210.506904 
L 338.748533 214.708527 
L 338.787 213.796315 
L 338.902401 199.396917 
L 339.133204 130.589491 
L 339.515688 21.403741 
L 339.592136 17.145626 
L 339.630357 18.017599 
L 339.745018 32.32699 
L 339.974341 101.107772 
L 340.354651 210.472237 
L 340.430671 214.708729 
L 340.468504 213.82402 
L 340.582003 199.544167 
L 340.846835 116.971144 
L 341.187085 21.403272 
L 341.262696 17.143179 
L 341.300271 18.02439 
L 341.412997 32.303251 
L 341.676024 114.908582 
L 342.013161 210.382407 
L 342.08808 214.706967 
L 342.125467 213.862915 
L 342.237629 199.640429 
L 342.49934 116.909267 
L 342.87107 18.32039 
L 342.908243 17.145294 
L 342.94533 17.978497 
L 343.05659 32.146586 
L 343.316199 114.715182 
L 343.686022 213.536751 
L 343.723005 214.70814 
L 343.759794 213.869422 
L 343.87016 199.712085 
L 344.12768 117.264343 
L 344.494904 18.338631 
L 344.531626 17.145196 
L 344.568212 17.963822 
L 344.677968 32.094144 
L 344.934067 114.627293 
L 345.298341 213.491633 
L 345.334768 214.705162 
L 345.371124 213.908714 
L 345.480192 199.830675 
L 345.734683 117.320241 
L 346.096771 18.360016 
L 346.13298 17.146008 
L 346.169055 17.941432 
L 346.27728 31.991277 
L 346.529806 114.36416 
L 346.889789 213.482854 
L 346.925787 214.705658 
L 346.961631 213.917119 
L 347.069163 199.883549 
L 347.320071 117.519187 
L 347.677441 18.390722 
L 347.713178 17.147925 
L 347.74882 17.916213 
L 347.855749 31.912083 
L 348.105248 114.308127 
L 348.460236 213.4517 
L 348.495735 214.70319 
L 348.531137 213.944889 
L 348.637343 199.985844 
L 348.885158 117.670368 
L 349.238155 18.403529 
L 349.273454 17.148123 
L 349.308618 17.903298 
L 349.414108 31.843149 
L 349.660251 114.0921 
L 350.011025 213.432975 
L 350.046103 214.702168 
L 350.081065 213.960035 
L 350.185953 200.045275 
L 350.430692 117.780631 
L 350.779125 18.432975 
L 350.813969 17.150659 
L 350.848724 17.878817 
L 350.952988 31.758693 
L 351.196272 113.998442 
L 351.542671 213.412959 
L 351.577311 214.700575 
L 351.611841 213.977894 
L 351.715429 200.123137 
L 351.957136 117.954027 
L 352.301557 18.447228 
L 352.335999 17.151305 
L 352.370324 17.866451 
L 352.473297 31.70118 
L 352.713568 113.84978 
L 353.05584 213.389903 
L 353.090067 214.698465 
L 353.1242 213.996087 
L 353.226599 200.18949 
L 353.465529 118.044082 
L 353.805753 18.47029 
L 353.839776 17.153518 
L 353.873704 17.847179 
L 353.97549 31.626139 
L 354.212991 113.724739 
L 354.551335 213.374287 
L 354.58517 214.697201 
L 354.618896 214.009347 
L 354.720076 200.250744 
L 354.956162 118.194 
L 355.29256 18.48777 
L 355.326199 17.15497 
L 355.35974 17.833225 
L 355.460362 31.569455 
L 355.695146 113.617102 
L 356.029568 213.352399 
L 356.06301 214.694798 
L 356.096364 214.02649 
L 356.196426 200.316254 
L 356.429905 118.29268 
L 356.762482 18.50558 
L 356.79574 17.156736 
L 356.828903 17.818536 
L 356.92839 31.506817 
L 357.160526 113.488198 
L 357.4913 213.336998 
L 357.524378 214.693314 
L 357.557358 214.038675 
L 357.656297 200.370029 
L 357.887156 118.411134 
L 358.216078 18.524153 
L 358.24897 17.158724 
L 358.281775 17.804188 
L 358.380187 31.45023 
L 358.609817 113.394078 
L 358.936939 213.318334 
L 358.969652 214.691084 
L 359.002277 214.053144 
L 359.100153 200.429302 
L 359.328532 118.51723 
L 359.653934 18.539484 
L 359.686474 17.16033 
L 359.718923 17.792003 
L 359.816269 31.396722 
L 360.043411 113.278819 
L 360.367084 213.302303 
L 360.399451 214.68923 
L 360.431731 214.065221 
L 360.528571 200.480152 
L 360.75453 118.614786 
L 361.076477 18.556999 
L 361.108671 17.162453 
L 361.140783 17.778699 
L 361.23712 31.342862 
L 361.461906 113.186038 
L 361.782189 213.286381 
L 361.814218 214.687227 
L 361.846162 214.077306 
L 361.941994 200.532249 
L 362.165602 118.718228 
L 362.484253 18.571617 
L 362.516118 17.164155 
L 362.547899 17.76758 
L 362.643241 31.294641 
L 362.865705 113.087301 
L 363.182719 213.270492 
L 363.21442 214.685143 
L 363.246041 214.088939 
L 363.340905 200.580824 
L 363.562253 118.80618 
L 363.877662 18.587282 
L 363.909203 17.166191 
L 363.940665 17.755871 
L 364.035051 31.245349 
L 364.255284 112.995621 
L 364.569133 213.256148 
L 364.600517 214.683234 
L 364.631822 214.099498 
L 364.725736 200.62724 
L 364.944869 118.900505 
L 365.257166 18.601603 
L 365.288396 17.168048 
L 365.319548 17.745353 
L 365.413002 31.200353 
L 365.631064 112.908936 
L 365.941823 213.241207 
L 365.972899 214.68111 
L 366.003899 214.110218 
L 366.0969 200.672786 
L 366.313902 118.984165 
L 366.623159 18.615649 
L 366.654085 17.169969 
L 366.684935 17.73507 
L 366.777485 31.155785 
L 366.993435 112.821813 
L 367.301214 213.227676 
L 367.331991 214.679183 
L 367.362694 214.119867 
L 367.454802 200.715242 
L 367.669721 119.068557 
L 367.976031 18.629424 
L 368.006662 17.171913 
L 368.03722 17.725206 
L 368.128894 31.11351 
L 368.3428 112.74236 
L 368.647665 213.213961 
L 368.678151 214.677123 
L 368.708566 214.12952 
L 368.79981 200.757248 
L 369.012712 119.148488 
L 369.316159 18.642361 
L 369.346503 17.173774 
L 369.376776 17.715966 
L 369.467595 31.072898 
L 369.679506 112.661997 
L 369.981551 213.201019 
L 370.011755 214.675154 
L 370.041889 214.138504 
L 370.132291 200.79676 
L 370.343229 119.224994 
L 370.643886 18.65531 
L 370.673952 17.175717 
L 370.703949 17.706878 
L 370.793939 31.033437 
L 371.003917 112.587305 
L 371.303211 213.188401 
L 371.33314 214.673172 
L 371.363001 214.147201 
L 371.452584 200.835336 
L 371.661611 119.300198 
L 371.959561 18.667486 
L 371.989356 17.177564 
L 372.019083 17.698393 
L 372.108265 30.995932 
L 372.316356 112.513725 
L 372.642638 214.671196 
L 372.672234 214.155549 
L 372.76102 200.872277 
L 372.968189 119.371028 
L 373.293028 17.179457 
L 373.322494 17.690092 
L 373.41089 30.959322 
L 373.617147 112.443262 
L 373.940565 214.669269 
L 373.969902 214.163483 
L 374.057912 200.907879 
L 374.263269 119.440906 
L 374.585283 17.181299 
L 374.614493 17.682223 
L 374.702123 30.924369 
L 374.906593 112.375401 
L 375.22722 214.667324 
L 375.256304 214.171192 
L 375.343559 200.942367 
L 375.547153 119.507315 
L 375.866412 17.183134 
L 375.895373 17.674628 
L 375.982257 30.890429 
L 376.184985 112.30928 
L 376.502893 214.665434 
L 376.531732 214.178512 
L 376.61825 200.975462 
L 376.820124 119.5721 
L 377.136698 17.184953 
L 377.165416 17.667323 
L 377.251572 30.857743 
L 377.452604 112.246022 
L 377.76786 214.663542 
L 377.796459 214.185612 
L 377.882258 201.007608 
L 378.105256 108.383314 
L 378.105256 108.383314 
" style="fill:none;stroke:#1f77b4;stroke-linecap:square;stroke-width:1.5;"/>
   </g>
   <g id="line2d_20">
    <path clip-path="url(#p4dc2e2ece8)" d="M 73.741619 115.920029 
L 74.041238 118.297205 
L 74.105695 118.23268 
L 74.239847 117.376623 
L 74.689444 113.542422 
L 74.72691 113.587562 
L 74.83931 114.186391 
L 75.326373 118.303422 
L 75.36384 118.251832 
L 75.476239 117.639724 
L 75.963303 113.543274 
L 76.000769 113.595459 
L 76.113169 114.205389 
L 76.600232 118.303928 
L 76.637699 118.256944 
L 76.750098 117.664507 
L 77.24548 113.543725 
L 77.287105 113.608152 
L 77.411982 114.342728 
L 77.90081 118.295976 
L 77.98244 118.034725 
L 78.18677 116.156654 
L 78.513651 113.551069 
L 78.592435 113.646744 
L 78.750005 114.757423 
L 79.15829 118.289572 
L 79.240655 118.208208 
L 79.405384 117.048971 
L 79.817855 113.550463 
L 79.897316 113.649227 
L 80.056237 114.764052 
L 80.468126 118.290417 
L 80.551252 118.206322 
L 80.717503 117.042524 
L 81.133782 113.549906 
L 81.213937 113.651681 
L 81.374248 114.770512 
L 81.790471 118.291969 
L 81.874378 118.202427 
L 82.042193 117.029954 
L 82.462406 113.548865 
L 82.543269 113.656304 
L 82.704994 114.783033 
L 83.125151 118.293553 
L 83.209867 118.198118 
L 83.379298 117.01624 
L 83.80356 113.547844 
L 83.885149 113.661426 
L 84.048328 114.796713 
L 84.472531 118.295167 
L 84.558079 118.193332 
L 84.729175 117.001307 
L 85.157609 113.546867 
L 85.239944 113.667093 
L 85.404615 114.811612 
L 85.832983 118.296788 
L 85.919389 118.188025 
L 86.0922 116.985089 
L 86.524934 113.545961 
L 86.608035 113.673353 
L 86.774238 114.827802 
L 87.206898 118.298394 
L 87.294188 118.182148 
L 87.468768 116.967508 
L 87.90449 113.545826 
L 87.988382 113.675111 
L 88.156164 114.831554 
L 88.593243 118.298879 
L 88.681435 118.180669 
L 88.85782 116.962716 
L 89.298043 113.545674 
L 89.382758 113.677191 
L 89.552189 114.836325 
L 89.993905 118.299502 
L 90.08318 118.17802 
L 90.261728 116.951761 
L 90.706669 113.545247 
L 90.792227 113.681816 
L 90.963343 114.847691 
L 91.409732 118.300521 
L 91.499904 118.174061 
L 91.680248 116.941333 
L 92.12997 113.544956 
L 92.216399 113.686012 
L 92.389256 114.857773 
L 92.84047 118.30139 
L 92.93157 118.170525 
L 93.113769 116.932189 
L 93.568425 113.544777 
L 93.655753 113.689775 
L 93.830409 114.866599 
L 94.286611 118.302135 
L 94.378669 118.167416 
L 94.562785 116.924303 
L 95.022536 113.54469 
L 95.110794 113.693102 
L 95.287311 114.874195 
L 95.748669 118.302775 
L 95.841719 118.164741 
L 96.027818 116.917651 
L 96.448223 113.596446 
L 96.537444 113.578289 
L 96.671276 114.163594 
L 97.227191 118.303327 
L 97.274228 118.279258 
L 97.415341 117.673174 
L 97.979878 113.544726 
L 98.024987 113.579593 
L 98.160313 114.16782 
L 98.722751 118.303807 
L 98.77032 118.27854 
L 98.913026 117.669743 
L 99.484262 113.544825 
L 99.529887 113.580695 
L 99.666762 114.171169 
L 100.23596 118.304225 
L 100.284079 118.278017 
L 100.428435 117.6672 
L 101.006613 113.544965 
L 101.052773 113.58159 
L 101.191254 114.173648 
L 101.767463 118.304592 
L 101.816153 118.277696 
L 101.962221 117.665541 
L 102.547595 113.54514 
L 102.594311 113.582276 
L 102.734458 114.175259 
L 103.317946 118.304914 
L 103.367228 118.277584 
L 103.515073 117.664767 
L 104.107917 113.545348 
L 104.155209 113.582748 
L 104.297086 114.176003 
L 104.888138 118.305198 
L 104.938035 118.277683 
L 105.087726 117.66488 
L 105.688329 113.545585 
L 105.736221 113.583008 
L 105.879896 114.175879 
L 106.478815 118.305445 
L 106.529351 118.277997 
L 106.680961 117.665883 
L 107.289634 113.545854 
L 107.33815 113.583054 
L 107.483696 114.174886 
L 108.090804 118.305658 
L 108.142007 118.278527 
L 108.295614 117.667784 
L 108.912687 113.546158 
L 108.961852 113.582889 
L 109.109347 114.173019 
L 109.724991 118.305834 
L 109.776887 118.279276 
L 109.932575 117.670591 
L 110.558403 113.546502 
L 110.608245 113.582517 
L 110.757772 114.170272 
L 111.382323 118.305971 
L 111.434942 118.280242 
L 111.5928 117.674313 
L 112.227763 113.546895 
L 112.278312 113.581941 
L 112.429959 114.166637 
L 113.063815 118.306064 
L 113.117189 118.281424 
L 113.277313 117.678966 
L 113.921819 113.547349 
L 113.973106 113.581168 
L 114.126968 114.162104 
L 114.770558 118.306105 
L 114.824723 118.282821 
L 114.987216 117.684563 
L 115.641704 113.547878 
L 115.693764 113.580207 
L 115.849944 114.156662 
L 116.50373 118.306084 
L 116.558721 118.284427 
L 116.723693 117.691125 
L 117.388639 113.548498 
L 117.441509 113.579068 
L 117.600117 114.150297 
L 118.264599 118.305987 
L 118.320456 118.286239 
L 118.432171 117.976434 
L 118.712427 116.04022 
L 119.110226 113.604951 
L 119.217664 113.577764 
L 119.37882 114.142993 
L 120.05454 118.305798 
L 120.111307 118.288248 
L 120.22484 117.982906 
L 120.509723 116.053604 
L 120.914441 113.608048 
L 121.023663 113.576311 
L 121.187497 114.134733 
L 121.875044 118.305499 
L 121.932766 118.290447 
L 122.048211 117.990153 
L 122.279102 116.538939 
L 122.749964 113.61161 
L 122.861065 113.574729 
L 123.027718 114.125496 
L 123.431686 117.077775 
L 123.727732 118.305066 
L 123.845191 118.189144 
L 124.021379 117.387627 
L 124.675027 113.55241 
L 124.788109 113.676712 
L 124.957733 114.43448 
L 125.614376 118.304469 
L 125.733959 118.194876 
L 125.913335 117.402004 
L 126.579439 113.553917 
L 126.694615 113.671649 
L 126.867378 114.420549 
L 127.536913 118.303677 
L 127.658743 118.201102 
L 127.841487 117.417808 
L 128.520783 113.55573 
L 128.638174 113.666193 
L 128.81426 114.405284 
L 129.497472 118.302648 
L 129.621675 118.207841 
L 129.80798 117.435201 
L 130.501271 113.557922 
L 130.621013 113.660316 
L 130.800625 114.388516 
L 131.49836 118.301304 
L 131.625041 118.215249 
L 131.815063 117.455 
L 132.523202 113.560672 
L 132.645445 113.653697 
L 132.82881 114.369288 
L 133.606686 118.306978 
L 133.735999 118.052469 
L 133.994624 116.670371 
L 134.526825 113.647551 
L 134.651701 113.563769 
L 134.776577 113.808595 
L 135.026329 115.103303 
L 135.565137 118.19295 
L 135.69725 118.310283 
L 135.829363 118.067862 
L 136.093589 116.704463 
L 136.638482 113.65813 
L 136.766119 113.561849 
L 136.893756 113.793607 
L 137.14903 115.067823 
L 137.701245 118.182411 
L 137.836344 118.313694 
L 137.971444 118.085995 
L 138.241642 116.745358 
L 138.80015 113.671525 
L 138.930735 113.56011 
L 139.061321 113.776057 
L 139.322493 115.025431 
L 139.889154 118.168871 
L 140.027446 118.316944 
L 140.165738 118.106976 
L 140.373177 117.20676 
L 141.068703 113.597833 
L 141.202409 113.598763 
L 141.402969 114.188088 
L 141.885676 117.103659 
L 142.166025 118.222729 
L 142.307921 118.306993 
L 142.449817 118.035831 
L 142.734468 116.637491 
L 143.305839 113.673207 
L 143.443288 113.563128 
L 143.580737 113.779129 
L 143.858061 115.039432 
L 144.428884 118.11021 
L 144.574432 118.32 
L 144.719979 118.173871 
L 144.9383 117.352722 
L 145.739716 113.568544 
L 145.880797 113.659 
L 146.092418 114.360773 
L 146.974131 118.323337 
L 147.123978 118.142404 
L 147.3497 117.276156 
L 148.09847 113.630897 
L 148.243566 113.582696 
L 148.388662 113.854676 
L 148.684594 115.200606 
L 149.288597 118.172241 
L 149.443061 118.324649 
L 149.597526 118.122653 
L 149.830915 117.229993 
L 150.598555 113.627645 
L 150.748139 113.588109 
L 150.897722 113.866906 
L 151.202891 115.21859 
L 151.82688 118.179541 
L 151.986289 118.326918 
L 152.145699 118.121506 
L 152.386879 117.226149 
L 153.175232 113.636895 
L 153.329787 113.587051 
L 153.485337 113.857405 
L 153.798431 115.181119 
L 154.445304 118.168046 
L 154.610125 118.331052 
L 154.77535 118.142058 
L 155.023791 117.273582 
L 155.835414 113.662752 
L 155.995537 113.580791 
L 156.156439 113.818364 
L 156.397793 114.690834 
L 157.238017 118.277454 
L 157.408908 118.302685 
L 157.579583 117.985032 
L 157.920932 116.558272 
L 158.507669 113.890305 
L 158.75803 113.576597 
L 158.924486 113.764039 
L 159.17417 114.571335 
L 160.053928 118.250934 
L 160.231526 118.325161 
L 160.409124 118.055537 
L 160.675521 117.109654 
L 161.523521 113.664513 
L 161.697108 113.592373 
L 161.870695 113.834986 
L 162.131076 114.703438 
L 162.998464 118.22393 
L 163.183951 118.340716 
L 163.369439 118.113736 
L 163.64767 117.218856 
L 164.536601 113.705259 
L 164.717832 113.589616 
L 164.899064 113.786991 
L 165.170911 114.597501 
L 166.180728 118.312571 
L 166.374784 118.306626 
L 166.56884 117.967856 
L 166.964808 116.500294 
L 167.594114 113.983274 
L 167.889375 113.595334 
L 168.079752 113.738658 
L 168.365318 114.479773 
L 169.433622 118.289712 
L 169.638147 118.341466 
L 169.842673 118.059029 
L 170.149461 117.114746 
L 171.039065 113.838472 
L 171.240403 113.614221 
L 171.44174 113.698322 
L 171.743746 114.361531 
L 172.308958 116.580331 
L 172.773501 118.077239 
L 172.990349 118.355917 
L 173.207197 118.30101 
L 173.424046 117.924282 
L 173.878506 116.382228 
L 174.591342 113.934762 
L 174.805204 113.651078 
L 175.019066 113.669139 
L 175.232929 113.983114 
L 175.571836 114.970229 
L 176.447153 117.998932 
L 176.678344 118.341893 
L 176.909535 118.360413 
L 177.140726 118.056542 
L 177.491112 117.094842 
L 178.440411 113.981865 
L 178.670278 113.68222 
L 178.900145 113.679729 
L 179.130013 113.970694 
L 179.482265 114.885039 
L 180.568532 118.201442 
L 180.818073 118.415742 
L 181.067614 118.306718 
L 181.319377 117.889566 
L 181.82735 116.39217 
L 182.582426 114.12769 
L 182.956523 113.687181 
L 183.205921 113.755799 
L 183.458963 114.111379 
L 183.838526 115.070608 
L 184.90011 118.109712 
L 185.172919 118.422825 
L 185.44656 118.423414 
L 185.721036 118.115148 
L 186.132749 117.184202 
L 187.237416 114.16615 
L 187.514147 113.813707 
L 187.789934 113.742099 
L 188.065721 113.95289 
L 188.479401 114.724785 
L 189.982829 118.363779 
L 190.287421 118.538643 
L 190.592014 118.411221 
L 190.896606 118.005604 
L 191.364773 116.979494 
L 192.470321 114.342323 
L 192.786191 113.957482 
L 193.190785 113.860485 
L 193.595379 114.208328 
L 193.999973 114.923784 
L 195.627178 118.406583 
L 195.977709 118.674049 
L 196.329452 118.658803 
L 196.681195 118.372455 
L 197.20881 117.536875 
L 198.887056 114.40308 
L 199.26 114.140721 
L 199.510374 114.107097 
L 200.011122 114.376959 
L 200.51187 115.032172 
L 201.4736 116.870444 
L 202.316036 118.365821 
L 202.947863 119.031257 
L 203.384519 119.187822 
L 203.821175 119.095089 
L 204.257831 118.781688 
L 204.933839 117.979662 
L 206.609307 115.732891 
L 207.327365 115.233804 
L 208.010551 115.187961 
L 208.693736 115.557483 
L 209.376922 116.27455 
L 210.401701 117.766497 
L 212.591585 121.105157 
L 213.721608 122.375091 
L 214.87023 123.32587 
L 217.186075 125.029254 
L 218.018928 125.894971 
L 218.851782 127.049067 
L 219.684636 128.578977 
L 220.517489 130.566322 
L 221.720124 134.400253 
L 222.922758 139.574854 
L 224.125393 146.296307 
L 225.328028 154.716089 
L 226.530662 164.85459 
L 228.334614 182.655104 
L 230.303114 202.343384 
L 231.287363 209.870267 
L 231.696806 212.043826 
L 232.106248 213.4614 
L 232.51569 213.98211 
L 232.925132 213.462488 
L 233.334574 211.760969 
L 233.744017 208.743478 
L 234.153459 204.290091 
L 234.972343 190.71387 
L 235.791227 170.66987 
L 236.876485 135.015865 
L 239.695398 32.800531 
L 240.223042 22.122626 
L 240.486864 18.905261 
L 240.750685 17.287819 
L 241.014507 17.383128 
L 241.227008 18.764464 
L 241.652011 25.132049 
L 242.077013 36.315168 
L 242.714517 61.48848 
L 243.573568 107.369958 
L 244.873216 180.333251 
L 245.534112 205.545997 
L 245.974709 213.736066 
L 246.195008 214.745465 
L 246.415306 213.56318 
L 246.635605 210.146847 
L 247.076202 196.708844 
L 247.516799 175.197652 
L 248.397994 115.613991 
L 249.499487 41.903429 
L 249.940084 23.992169 
L 250.342768 17.219593 
L 250.525153 17.542162 
L 250.707537 20.053858 
L 251.072307 31.556122 
L 251.619462 63.307369 
L 252.530679 138.334855 
L 253.230913 190.453314 
L 253.658459 209.526685 
L 253.962805 214.65139 
L 254.124635 214.20889 
L 254.286466 211.517276 
L 254.610128 199.537553 
L 255.09562 167.042321 
L 256.875759 22.881158 
L 257.199421 17.09002 
L 257.361252 18.291825 
L 257.684914 28.928103 
L 258.008575 49.663378 
L 258.655899 111.824036 
L 259.465053 189.802876 
L 259.788714 208.203771 
L 260.083359 214.694194 
L 260.216172 214.103209 
L 260.4818 206.29003 
L 260.880241 179.337022 
L 261.578845 104.322743 
L 262.277584 35.642741 
L 262.636849 18.856697 
L 262.756604 17.18097 
L 262.876359 17.591341 
L 263.115869 24.670818 
L 263.470297 49.317718 
L 264.056981 115.222462 
L 264.760439 192.467973 
L 265.111607 212.083891 
L 265.228662 214.427319 
L 265.345718 214.510841 
L 265.462774 212.312523 
L 265.696886 201.248202 
L 266.030638 171.913867 
L 267.436812 20.965322 
L 267.652333 17.094016 
L 267.760094 18.392183 
L 267.975615 27.395426 
L 268.288013 54.131389 
L 268.966158 143.143774 
L 269.517086 202.403604 
L 269.737458 213.015117 
L 269.847643 214.715239 
L 269.939326 214.220459 
L 270.122693 208.045104 
L 270.397742 186.709062 
L 270.871773 125.798096 
L 271.629419 31.126433 
L 271.902625 17.880055 
L 271.993693 17.089664 
L 272.084761 18.184099 
L 272.287932 27.311881 
L 272.592688 56.507074 
L 273.857553 211.79842 
L 273.963442 214.456117 
L 274.06933 214.357958 
L 274.281108 205.911181 
L 274.598774 174.707157 
L 275.838216 18.977405 
L 275.989545 17.222437 
L 276.140874 21.580627 
L 276.36411 38.616304 
L 276.723642 86.812868 
L 277.516976 201.063369 
L 277.760349 214.064704 
L 277.835641 214.750917 
L 277.910933 213.803211 
L 278.061518 207.067838 
L 278.362687 176.158977 
L 279.527099 18.94043 
L 279.673291 17.286812 
L 279.806645 21.507378 
L 280.047678 42.184757 
L 280.432435 100.729464 
L 281.111613 202.695385 
L 281.315137 213.936372 
L 281.399139 214.726819 
L 281.48314 213.197721 
L 281.651144 203.337616 
L 281.987152 160.446623 
L 282.930701 21.01185 
L 283.074763 17.09119 
L 283.158218 18.11704 
L 283.32513 27.336041 
L 283.575497 57.101561 
L 284.635065 213.160148 
L 284.716106 214.729305 
L 284.797147 213.876043 
L 284.959229 205.006078 
L 285.202352 175.711967 
L 286.221569 19.377091 
L 286.299073 17.273669 
L 286.376576 17.501841 
L 286.531583 24.911439 
L 286.764094 51.819666 
L 287.841468 214.250049 
L 287.916225 214.627158 
L 288.065738 208.54714 
L 288.290009 183.666763 
L 288.840956 79.263471 
L 289.22522 24.626549 
L 289.430912 17.146815 
L 289.568041 22.178378 
L 289.795274 46.988001 
L 290.280891 140.582399 
L 290.697744 205.61691 
L 290.909038 214.7412 
L 291.014685 211.843 
L 291.226516 191.666886 
L 291.616723 119.149532 
L 292.118306 29.938647 
L 292.326162 17.27691 
L 292.378126 17.212112 
L 292.482055 20.886018 
L 292.689911 42.530247 
L 293.083509 118.87228 
L 293.588643 206.120158 
L 293.763775 214.708864 
L 293.824632 214.213281 
L 293.946345 207.81996 
L 294.178552 177.577395 
L 295.134791 17.425948 
L 295.201175 17.311478 
L 295.333943 23.794746 
L 295.533094 48.912278 
L 296.554121 214.683887 
L 296.662095 210.651701 
L 296.860355 188.171844 
L 297.263468 103.789494 
L 297.690958 26.584113 
L 297.848475 17.325515 
L 297.914379 17.448589 
L 298.046188 24.81736 
L 298.309805 64.568531 
L 299.089671 211.655006 
L 299.20661 214.710734 
L 299.32355 209.97506 
L 299.498959 189.166596 
L 299.866603 110.30791 
L 300.334783 23.853703 
L 300.468548 17.182649 
L 300.535431 17.785414 
L 300.684974 28.547011 
L 300.934212 71.088249 
L 301.624492 209.372548 
L 301.751105 214.743239 
L 301.814411 213.766465 
L 301.941024 204.579636 
L 302.188269 162.796785 
L 302.941682 18.454996 
L 303.006498 17.084037 
L 303.071314 18.373074 
L 303.200946 28.747503 
L 303.460209 75.586224 
L 304.106503 209.195824 
L 304.212827 214.556487 
L 304.265989 214.491115 
L 304.372313 208.856613 
L 304.603882 173.789492 
L 305.384816 18.451535 
L 305.446971 17.084556 
L 305.509126 18.320716 
L 305.633435 28.428005 
L 305.882055 74.309381 
L 306.511666 208.963063 
L 306.664193 214.576483 
L 306.765877 209.411921 
L 306.969246 179.544133 
L 307.78665 17.413567 
L 307.845616 17.376511 
L 307.959459 24.272156 
L 308.187144 62.395608 
L 308.940219 214.286203 
L 308.984742 214.727956 
L 309.073787 211.249767 
L 309.251878 187.94026 
L 309.641358 91.200491 
L 309.995414 22.799311 
L 310.1202 17.084234 
L 310.165295 17.893969 
L 310.300581 29.325861 
L 310.571153 85.181848 
L 311.154485 211.469877 
L 311.271151 214.524996 
L 311.362322 209.604382 
L 311.544663 182.120278 
L 312.332794 17.374664 
L 312.388278 17.40665 
L 312.499245 24.747626 
L 312.724513 65.732225 
L 313.419207 214.117642 
L 313.458514 214.756282 
L 313.497821 214.132484 
L 313.615743 204.829514 
L 313.827281 164.031413 
L 314.474563 19.101371 
L 314.522068 17.286822 
L 314.576708 17.529518 
L 314.685988 25.417434 
L 314.904548 66.907375 
L 315.537341 212.093043 
L 315.629393 214.68286 
L 315.722153 209.979966 
L 315.907674 180.389812 
L 316.655254 17.270763 
L 316.706823 17.50405 
L 316.797534 23.525017 
L 316.978957 54.897249 
L 317.724744 214.755339 
L 317.823047 210.307078 
L 318.019655 177.699719 
L 318.758573 17.0837 
L 318.853441 21.176019 
L 319.043179 52.09534 
L 319.798909 214.637301 
L 319.887998 209.612714 
L 320.066176 179.295057 
L 320.807507 17.14593 
L 320.89865 22.095036 
L 321.080935 53.652876 
L 321.797016 214.755186 
L 321.889916 210.686975 
L 322.075715 179.317836 
L 322.796173 17.099011 
L 322.884713 21.486133 
L 323.061794 51.757537 
L 323.783477 214.696689 
L 323.870548 209.897749 
L 324.044689 179.212771 
L 324.747147 17.086141 
L 324.836054 21.379901 
L 325.013867 52.517332 
L 325.708183 214.756289 
L 325.795683 210.677032 
L 325.970682 180.1735 
L 326.667448 17.103273 
L 326.752363 21.531225 
L 326.922194 51.754254 
L 327.610461 214.746054 
L 327.695628 210.367425 
L 327.865962 179.713887 
L 328.541676 17.08376 
L 328.627045 21.107852 
L 328.797783 51.658078 
L 329.47139 214.75481 
L 329.554828 210.639445 
L 329.721704 180.531909 
L 330.392535 17.090599 
L 330.433755 18.244158 
L 330.557417 33.153556 
L 330.804742 102.004073 
L 331.217992 210.763066 
L 331.300665 214.756364 
L 331.342017 213.732213 
L 331.466075 198.915417 
L 331.71419 129.26116 
L 332.121814 21.116694 
L 332.203208 17.083937 
L 332.24413 18.055681 
L 332.366896 32.680463 
L 332.612427 101.96358 
L 333.019653 210.843388 
L 333.101054 214.755542 
L 333.141303 213.705542 
L 333.262052 199.047999 
L 333.503551 130.361091 
L 333.907907 21.085938 
L 333.98882 17.083735 
L 334.028925 18.106971 
L 334.149241 32.794748 
L 334.389873 101.869667 
L 334.788481 210.619285 
L 334.868148 214.755029 
L 334.908115 213.819952 
L 335.028015 199.27333 
L 335.267815 130.002361 
L 335.663822 21.170633 
L 335.742942 17.084111 
L 335.782382 18.038297 
L 335.900703 32.517328 
L 336.137344 101.299788 
L 336.531889 210.683092 
L 336.610801 214.756357 
L 336.649877 213.77713 
L 336.767105 199.260365 
L 337.001562 130.547103 
L 337.391993 21.268453 
L 337.470072 17.085373 
L 337.509028 18.006682 
L 337.625896 32.466847 
L 337.859632 101.471886 
L 338.246263 210.53743 
L 338.323524 214.753251 
L 338.362161 213.861633 
L 338.478072 199.498948 
L 338.709896 130.654579 
L 339.094737 21.26827 
L 339.171671 17.085299 
L 339.209895 18.000782 
L 339.324567 32.356122 
L 339.553912 100.93854 
L 339.936121 210.522491 
L 340.012562 214.753784 
L 340.050572 213.855289 
L 340.164602 199.507526 
L 340.430671 116.726645 
L 340.771168 21.386571 
L 340.846835 17.089105 
L 340.88464 17.945692 
L 340.998057 32.218753 
L 341.262696 115.083529 
L 341.600873 210.458588 
L 341.676024 214.751216 
L 341.713483 213.894467 
L 341.825862 199.667266 
L 342.08808 117.045657 
L 342.424565 21.388436 
L 342.49934 17.088461 
L 342.536513 17.948981 
L 342.648032 32.172772 
L 342.908243 114.731489 
L 343.279112 213.567543 
L 343.316199 214.749044 
L 343.353181 213.917527 
L 343.464128 199.733516 
L 343.723005 117.055018 
L 344.090892 18.28966 
L 344.12768 17.092629 
L 344.164403 17.905687 
L 344.27457 32.033584 
L 344.531626 114.626919 
L 344.897481 213.553789 
L 344.934067 214.747938 
L 344.970494 213.931553 
L 345.079776 199.823677 
L 345.334768 117.374801 
L 345.698327 18.302058 
L 345.734683 17.093394 
L 345.770892 17.897413 
L 345.879518 31.985864 
L 346.13298 114.471923 
L 346.493731 213.514171 
L 346.529806 214.744137 
L 346.565804 213.96256 
L 346.673799 199.919691 
L 346.925787 117.418386 
L 347.284227 18.331081 
L 347.320071 17.096397 
L 347.355808 17.872125 
L 347.463019 31.880892 
L 347.713178 114.26861 
L 348.069605 213.503273 
L 348.105248 214.743246 
L 348.140746 213.971421 
L 348.247243 199.97946 
L 348.495735 117.637035 
L 348.849756 18.356051 
L 348.885158 17.098945 
L 348.920458 17.854002 
L 349.026357 31.815307 
L 349.273454 114.18656 
L 349.625088 213.470801 
L 349.660251 214.739481 
L 349.695329 213.997173 
L 349.800561 200.072848 
L 350.046103 117.751556 
L 350.395729 18.373737 
L 350.430692 17.100947 
L 350.465535 17.839372 
L 350.570065 31.741284 
L 350.813969 113.987786 
L 351.161517 213.454244 
L 351.196272 214.737708 
L 351.230912 214.009113 
L 351.334832 200.128918 
L 351.577311 117.885728 
L 351.922606 18.401167 
L 351.957136 17.104349 
L 351.991578 17.819103 
L 352.094904 31.667541 
L 352.335999 113.900643 
L 352.679243 213.431081 
L 352.713568 214.734706 
L 352.747795 214.027192 
L 352.850477 200.205796 
L 353.090067 118.033358 
L 353.431396 18.416654 
L 353.465529 17.106232 
L 353.499551 17.807515 
L 353.601619 31.609051 
L 353.839776 113.746953 
L 354.179062 213.410248 
L 354.212991 214.732009 
L 354.246826 214.041944 
L 354.348329 200.265392 
L 354.58517 118.131921 
L 354.922435 18.440473 
L 354.956162 17.109555 
L 354.989802 17.789988 
L 355.090721 31.539256 
L 355.326199 113.638175 
L 355.661605 213.39255 
L 355.695146 214.729563 
L 355.728588 214.055123 
L 355.828915 200.327145 
L 356.06301 118.272903 
L 356.396551 18.457396 
L 356.429905 17.111864 
L 356.463162 17.778113 
L 356.562936 31.485392 
L 356.79574 113.523207 
L 357.127364 213.371414 
L 357.160526 214.726476 
L 357.193604 214.069966 
L 357.292836 200.387107 
L 357.524378 118.36753 
L 357.854177 18.476728 
L 357.887156 17.114767 
L 357.920049 17.764206 
L 358.018725 31.424698 
L 358.24897 113.406342 
L 358.577013 213.355397 
L 358.609817 214.724119 
L 358.64253 214.081219 
L 358.740666 200.440002 
L 358.969652 118.486144 
L 359.295906 18.494672 
L 359.328532 17.117488 
L 359.361072 17.751963 
L 359.458692 31.372137 
L 359.686474 113.310545 
L 360.010963 213.336363 
L 360.043411 214.721108 
L 360.075779 214.094392 
L 360.172881 200.495981 
L 360.399451 118.5844 
L 360.72225 18.511102 
L 360.75453 17.120089 
L 360.786725 17.740576 
L 360.883309 31.319794 
L 361.108671 113.200571 
L 361.429793 213.320454 
L 361.461906 214.718589 
L 361.493934 214.105103 
L 361.590019 200.544611 
L 361.814218 118.683352 
L 362.133658 18.528553 
L 362.165602 17.122953 
L 362.197467 17.728883 
L 362.293062 31.269379 
L 362.516118 113.110857 
L 362.833924 213.303843 
L 362.865705 214.715812 
L 362.897406 214.116328 
L 362.99251 200.594841 
L 363.21442 118.780679 
L 363.530632 18.543672 
L 363.562253 17.125473 
L 363.593794 17.718809 
L 363.688417 31.222706 
L 363.909203 113.013614 
L 364.223822 213.288118 
L 364.255284 214.713146 
L 364.286669 214.126633 
L 364.380824 200.640827 
L 364.600517 118.868025 
L 364.913565 18.559713 
L 364.944869 17.128262 
L 364.976099 17.708264 
L 365.069788 31.175864 
L 365.288396 112.926384 
L 365.599912 213.273249 
L 365.631064 214.710547 
L 365.66214 214.136385 
L 365.755367 200.685807 
L 365.972899 118.959014 
L 366.282902 18.574222 
L 366.313902 17.130811 
L 366.344828 17.6989 
L 366.437605 31.132821 
L 366.654085 112.840501 
L 366.962585 213.258255 
L 366.993435 214.707858 
L 367.024213 214.146009 
L 367.116547 200.729081 
L 367.331991 119.040344 
L 367.639018 18.588766 
L 367.669721 17.133454 
L 367.700352 17.689556 
L 367.792245 31.090036 
L 368.006662 112.757051 
L 368.312242 213.244438 
L 368.3428 214.70534 
L 368.373287 214.154806 
L 368.464746 200.770055 
L 368.678151 119.123026 
L 368.982297 18.602695 
L 369.012712 17.136024 
L 369.043056 17.680781 
L 369.13409 31.049762 
L 369.346503 112.679028 
L 369.649233 213.230497 
L 369.679506 214.702729 
L 369.709711 214.163576 
L 369.800324 200.810263 
L 370.011755 119.200196 
L 370.313095 18.616056 
L 370.343229 17.138543 
L 370.373295 17.672409 
L 370.463492 31.010666 
L 370.673952 112.601128 
L 370.97392 213.217399 
L 371.003917 214.700243 
L 371.033846 214.171703 
L 371.123635 200.848217 
L 371.33314 119.275391 
L 371.63175 18.629235 
L 371.661611 17.141078 
L 371.691406 17.664275 
L 371.780791 30.972998 
L 371.989356 112.528437 
L 372.286629 213.204506 
L 372.316356 214.69774 
L 372.346018 214.179644 
L 372.435004 200.885336 
L 372.642638 119.348215 
L 372.968189 17.143517 
L 372.99772 17.656631 
L 373.086313 30.936939 
L 373.293028 112.456566 
L 373.617147 214.695291 
L 373.646549 214.187194 
L 373.734754 200.920772 
L 373.940565 119.4176 
L 374.263269 17.145973 
L 374.292543 17.649164 
L 374.380365 30.901864 
L 374.585283 112.388171 
L 374.906593 214.692886 
L 374.935741 214.194431 
L 375.023185 200.95509 
L 375.22722 119.485667 
L 375.547153 17.148352 
L 375.576177 17.642098 
L 375.663247 30.868313 
L 375.866412 112.321772 
L 376.184985 214.690498 
L 376.213885 214.201425 
L 376.300588 200.988216 
L 376.502893 119.550489 
L 376.820124 17.150716 
L 376.848903 17.635252 
L 376.935242 30.835705 
L 377.136698 112.257481 
L 377.452604 214.688172 
L 377.481263 214.208088 
L 377.567242 201.020117 
L 377.76786 119.613837 
L 378.082456 17.153035 
L 378.105256 17.371632 
L 378.105256 17.371632 
" style="fill:none;stroke:#ff7f0e;stroke-linecap:square;stroke-width:1.5;"/>
   </g>
   <g id="line2d_21">
    <path clip-path="url(#p4dc2e2ece8)" d="M 73.741619 17.083636 
L 74.277313 17.192543 
L 74.72691 17.13009 
L 75.176508 17.103553 
L 75.88837 17.161263 
L 76.450367 17.103618 
L 77.162229 17.163712 
L 77.738193 17.104346 
L 78.433189 17.169789 
L 79.03518 17.104633 
L 79.73668 17.170384 
L 80.343915 17.104976 
L 81.051874 17.171007 
L 81.664969 17.105433 
L 82.379746 17.171491 
L 82.998451 17.105956 
L 83.720127 17.171965 
L 84.344598 17.106525 
L 85.07338 17.17243 
L 85.703781 17.107143 
L 86.439885 17.172882 
L 87.076387 17.107812 
L 87.818778 17.173649 
L 88.461387 17.108213 
L 89.167243 17.185365 
L 89.860588 17.108659 
L 90.574509 17.186189 
L 91.275015 17.109283 
L 91.996401 17.187085 
L 92.704308 17.109903 
L 93.4334 17.188053 
L 94.148954 17.110519 
L 94.886009 17.189096 
L 95.609469 17.111132 
L 96.354753 17.190218 
L 97.086392 17.111744 
L 97.84019 17.191423 
L 98.580297 17.112357 
L 99.342911 17.192714 
L 100.09179 17.112972 
L 100.863537 17.194098 
L 101.621514 17.11359 
L 102.402732 17.195579 
L 103.170149 17.114213 
L 103.961198 17.197163 
L 104.738421 17.114844 
L 105.539682 17.198857 
L 106.327101 17.115483 
L 107.087913 17.211818 
L 107.988307 17.128785 
L 108.708159 17.213901 
L 109.569032 17.116798 
L 110.350949 17.216119 
L 111.224102 17.117479 
L 112.017256 17.218484 
L 112.903231 17.118179 
L 113.708121 17.221007 
L 114.607503 17.118901 
L 115.424668 17.223702 
L 116.338086 17.11965 
L 117.168106 17.226582 
L 118.096238 17.12043 
L 118.939741 17.229665 
L 119.883325 17.121246 
L 120.74099 17.23297 
L 121.700824 17.122103 
L 122.573391 17.236518 
L 123.550344 17.123008 
L 124.438618 17.240335 
L 125.433642 17.123968 
L 126.338502 17.244447 
L 127.352637 17.124994 
L 128.275049 17.248889 
L 129.30944 17.126095 
L 130.250444 17.2537 
L 131.306356 17.127279 
L 132.266954 17.258958 
L 133.345793 17.128527 
L 134.327249 17.264716 
L 135.430435 17.129819 
L 136.434147 17.271069 
L 137.563192 17.13112 
L 138.590709 17.278135 
L 139.818321 17.148634 
L 140.792027 17.28743 
L 142.095077 17.158895 
L 143.021694 17.301626 
L 144.428884 17.168573 
L 145.306922 17.316039 
L 146.974131 17.219699 
L 147.729076 17.324017 
L 149.365829 17.207192 
L 150.14323 17.340213 
L 150.897722 17.172928 
L 151.50806 17.126179 
L 153.175232 17.26563 
L 154.033252 17.122591 
L 154.77535 17.291851 
L 155.435108 17.360906 
L 157.238017 17.225889 
L 158.089836 17.383816 
L 158.841258 17.23074 
L 159.608114 17.138872 
L 160.586722 17.37062 
L 161.238821 17.373151 
L 162.705741 17.1684 
L 164.23803 17.398244 
L 165.878157 17.194876 
L 167.384345 17.428657 
L 169.113646 17.203894 
L 170.705464 17.465473 
L 172.657365 17.240529 
L 174.116118 17.521373 
L 175.019066 17.33167 
L 175.821927 17.202037 
L 176.562748 17.31796 
L 177.848697 17.578172 
L 178.670278 17.439334 
L 179.838243 17.234852 
L 180.568532 17.356036 
L 181.954343 17.651235 
L 182.707125 17.550376 
L 184.218089 17.284371 
L 185.036514 17.434664 
L 186.407224 17.752998 
L 187.237416 17.678714 
L 189.072259 17.362942 
L 189.982829 17.537058 
L 191.522708 17.916824 
L 192.312385 17.88168 
L 194.928543 17.537102 
L 195.977709 17.810749 
L 197.395281 18.202445 
L 198.327641 18.230578 
L 199.760748 17.970255 
L 201.012617 17.81873 
L 202.105427 17.964076 
L 203.602847 18.491239 
L 205.173192 18.99224 
L 206.369954 19.116783 
L 208.010551 19.012803 
L 209.376922 18.96272 
L 210.401701 19.094968 
L 211.461562 19.439618 
L 212.591585 20.037529 
L 214.098282 21.134455 
L 216.028152 22.88414 
L 217.602502 24.555042 
L 219.268209 26.674186 
L 220.517489 28.652949 
L 221.720124 31.03659 
L 222.922758 34.069838 
L 224.125393 37.962129 
L 225.328028 42.949445 
L 226.530662 49.281418 
L 227.733297 57.193869 
L 228.826739 65.90726 
L 230.303114 80.008112 
L 232.106248 100.188703 
L 234.562901 127.957077 
L 235.381785 135.305002 
L 236.20067 140.678245 
L 236.876485 143.202388 
L 237.214393 143.722514 
L 237.552301 143.715001 
L 237.890209 143.165698 
L 238.228117 142.070772 
L 238.903932 138.288675 
L 239.695398 131.456654 
L 240.750685 119.662156 
L 242.077013 104.810055 
L 242.714517 99.605528 
L 243.144042 97.337065 
L 243.573568 96.260582 
L 243.78833 96.202336 
L 244.003093 96.47205 
L 244.432619 97.986463 
L 244.873216 100.812619 
L 245.534112 107.030473 
L 247.516799 128.239148 
L 247.957397 130.667362 
L 248.177695 131.295332 
L 248.397994 131.502006 
L 248.618292 131.277806 
L 248.838591 130.624829 
L 249.279188 128.101956 
L 249.940084 121.851939 
L 251.437077 105.591577 
L 251.87981 102.953642 
L 252.140157 102.261035 
L 252.270331 102.173626 
L 252.400505 102.262168 
L 252.660853 102.963564 
L 252.945883 104.497429 
L 253.373428 108.089975 
L 254.448297 120.306761 
L 255.09562 126.021719 
L 255.419282 127.468842 
L 255.581113 127.756991 
L 255.742944 127.740726 
L 255.904774 127.418843 
L 256.228436 125.892656 
L 256.713929 121.728064 
L 258.170406 106.474036 
L 258.494068 105.018196 
L 258.655899 104.771096 
L 258.817729 104.859925 
L 258.97956 105.283565 
L 259.303222 107.078684 
L 259.788714 111.669299 
L 260.880241 123.461894 
L 261.23937 125.453892 
L 261.465687 125.849479 
L 261.578845 125.78076 
L 261.805161 125.113622 
L 262.157829 122.780738 
L 262.756604 116.376256 
L 263.470297 108.775741 
L 263.822307 106.708193 
L 264.056981 106.280365 
L 264.174317 106.373513 
L 264.408991 107.166822 
L 264.760439 109.714687 
L 265.462774 117.571892 
L 266.030638 123.040567 
L 266.355682 124.488454 
L 266.46403 124.615062 
L 266.572378 124.555327 
L 266.789074 123.883828 
L 267.113531 121.629585 
L 267.760094 114.474825 
L 268.384891 108.511851 
L 268.675524 107.379035 
L 268.772402 107.305911 
L 268.86928 107.390261 
L 269.076343 108.088958 
L 269.406901 110.51281 
L 270.774885 123.509551 
L 270.968662 123.739123 
L 271.162438 123.310749 
L 271.447283 121.568402 
L 271.902625 116.833059 
L 272.592688 109.607885 
L 272.897444 108.174883 
L 273.072009 108.092604 
L 273.246574 108.567447 
L 273.508422 110.241552 
L 273.963442 115.044097 
L 274.598774 121.63691 
L 274.91644 123.030493 
L 275.022328 123.081741 
L 275.198051 122.694237 
L 275.477386 120.953583 
L 275.989545 115.431612 
L 276.579829 109.648762 
L 276.867454 108.650758 
L 276.960243 108.672569 
L 277.145821 109.224755 
L 277.424187 111.198441 
L 278.618889 122.416624 
L 278.799799 122.534577 
L 278.980709 121.98377 
L 279.307811 119.499033 
L 280.364441 109.356963 
L 280.568424 109.132197 
L 280.704413 109.472383 
L 280.975931 111.225331 
L 281.48314 116.815396 
L 281.987152 121.456746 
L 282.246805 122.1469 
L 282.376631 121.942244 
L 282.567063 121.000927 
L 282.930701 117.554188 
L 283.658952 110.194755 
L 283.91159 109.490762 
L 284.037909 109.674092 
L 284.223082 110.56886 
L 284.57621 113.890869 
L 285.283393 121.073695 
L 285.527176 121.793602 
L 285.649067 121.641848 
L 285.827284 120.82019 
L 286.165243 117.705883 
L 286.903884 110.344492 
L 287.090744 109.823325 
L 287.215318 109.934445 
L 287.393243 110.716123 
L 287.713358 113.61095 
L 288.483813 121.129123 
L 288.662384 121.493159 
L 288.781432 121.304569 
L 288.960004 120.401469 
L 289.293784 117.183191 
L 289.965699 110.570306 
L 290.151699 110.096246 
L 290.280891 110.272967 
L 290.474678 111.284458 
L 290.856215 115.156215 
L 291.438884 120.761966 
L 291.616723 121.230465 
L 291.688378 121.192357 
L 291.831687 120.727346 
L 292.118306 118.455533 
L 292.95231 110.518838 
L 293.083509 110.340441 
L 293.214708 110.611101 
L 293.428385 111.941956 
L 293.885488 116.962839 
L 294.277827 120.477447 
L 294.476376 121.005522 
L 294.575651 120.878202 
L 294.773296 119.877269 
L 295.134791 116.194664 
L 295.649094 111.136383 
L 295.847561 110.553573 
L 295.946794 110.660094 
L 296.095644 111.307675 
L 296.378895 113.848969 
L 297.059934 120.489092 
L 297.212584 120.803772 
L 297.314352 120.655464 
L 297.507732 119.622976 
L 297.848475 116.108123 
L 298.37571 111.11638 
L 298.573423 110.759423 
L 298.705232 111.130279 
L 298.945506 112.914655 
L 299.79972 120.596185 
L 299.866603 120.615628 
L 300.000369 120.270534 
L 300.201017 118.883802 
L 301.08794 110.933569 
L 301.190425 110.976563 
L 301.344152 111.604209 
L 301.624492 114.146332 
L 302.234254 120.125024 
L 302.372208 120.458672 
L 302.418086 120.444916 
L 302.55572 120.032183 
L 302.78511 118.260153 
L 303.525025 111.218857 
L 303.654657 111.081362 
L 303.754328 111.32016 
L 303.95367 112.617784 
L 304.85899 120.31107 
L 304.951724 120.14034 
L 305.137193 119.059551 
L 305.509126 115.030957 
L 305.882055 111.629011 
L 306.068519 111.215562 
L 306.166595 111.430034 
L 306.362748 112.682499 
L 307.255953 120.170011 
L 307.373886 119.860291 
L 307.609751 118.087746 
L 308.357908 111.363551 
L 308.471751 111.423203 
L 308.639201 112.239425 
L 308.940219 115.282879 
L 309.411386 119.748661 
L 309.583865 120.037085 
L 309.69885 119.696238 
L 309.915724 118.039087 
L 310.629486 111.505633 
L 310.746152 111.517476 
L 310.921152 112.349252 
L 311.271151 115.999278 
L 311.684062 119.699473 
L 311.828747 119.933567 
L 311.925203 119.702846 
L 312.118115 118.40001 
L 312.915013 111.564487 
L 312.991927 111.675112 
L 313.145756 112.46763 
L 313.458514 115.707587 
L 313.870338 119.538271 
L 313.999511 119.837731 
L 314.047016 119.804757 
L 314.189532 119.253238 
L 314.474563 116.564406 
L 314.959188 111.924594 
L 315.068468 111.668468 
L 315.123108 111.695069 
L 315.261186 112.213889 
L 315.537341 114.780224 
L 316.046814 119.562394 
L 316.139574 119.739254 
L 316.191142 119.707082 
L 316.345846 119.066659 
L 316.655254 115.986981 
L 317.069668 112.063582 
L 317.205735 111.759874 
L 317.3001 111.933286 
L 317.488831 113.149108 
L 318.265414 119.640006 
L 318.399912 119.210361 
L 318.624075 117.299531 
L 319.185482 111.984132 
L 319.280351 111.848535 
L 319.327493 111.902805 
L 319.468917 112.532185 
L 319.751767 115.342444 
L 320.199809 119.412379 
L 320.288898 119.564398 
L 320.336044 119.52695 
L 320.477483 118.93955 
L 320.760361 116.164391 
L 321.217648 112.05132 
L 321.308791 111.931554 
L 321.353175 111.984946 
L 321.486327 112.568126 
L 321.752632 115.169685 
L 322.215065 119.362419 
L 322.307964 119.481999 
L 322.352347 119.424802 
L 322.485495 118.826926 
L 322.751791 116.200017 
L 323.194604 112.154242 
L 323.283144 112.006901 
L 323.328629 112.046661 
L 323.465083 112.62146 
L 323.737992 115.30323 
L 324.175294 119.272705 
L 324.262365 119.409698 
L 324.306436 119.368442 
L 324.438649 118.812782 
L 324.703075 116.235113 
L 325.147228 112.20411 
L 325.236135 112.081067 
L 325.279048 112.131035 
L 325.407789 112.692816 
L 325.66527 115.21137 
L 326.101932 119.202391 
L 326.189431 119.338897 
L 326.232887 119.295669 
L 326.363255 118.73852 
L 326.623992 116.181921 
L 327.049567 112.291282 
L 327.134482 112.148263 
L 327.177753 112.184574 
L 327.307565 112.7226 
L 327.56719 115.254173 
L 327.993712 119.14063 
L 328.078879 119.272168 
L 328.120952 119.230735 
L 328.247169 118.697825 
L 328.499604 116.241641 
L 328.925837 112.344993 
L 329.011206 112.213515 
L 329.053041 112.255827 
L 329.178546 112.79014 
L 329.429555 115.240287 
L 329.846861 119.068319 
L 329.930299 119.209273 
L 329.972321 119.17362 
L 330.098385 118.650873 
L 330.350513 116.193999 
L 330.763521 112.412312 
L 330.845962 112.274646 
L 330.887299 112.310036 
L 331.011309 112.822193 
L 331.259328 115.230138 
L 331.672837 119.016858 
L 331.755542 119.149248 
L 331.796239 119.110996 
L 331.91833 118.599858 
L 332.162511 116.227266 
L 332.571505 112.470079 
L 332.653349 112.333022 
L 332.69405 112.368395 
L 332.816151 112.874725 
L 333.060353 115.249173 
L 333.463301 118.952924 
L 333.5438 119.092418 
L 333.584256 119.060123 
L 333.705625 118.563997 
L 333.948363 116.209968 
L 334.349767 112.523755 
L 334.429978 112.388525 
L 334.469811 112.422275 
L 334.589313 112.913518 
L 334.828315 115.228346 
L 335.227849 118.903214 
L 335.307782 119.038279 
L 335.347342 119.004568 
L 335.466022 118.51574 
L 335.703382 116.214803 
L 336.097904 112.579831 
L 336.176785 112.441449 
L 336.216241 112.472314 
L 336.334609 112.954064 
L 336.571345 115.246705 
L 336.962486 118.849414 
L 337.040638 118.986585 
L 337.079678 118.956269 
L 337.196796 118.481261 
L 337.431032 116.217024 
L 337.820676 112.626925 
L 337.898588 112.491854 
L 337.937218 112.5229 
L 338.05311 112.994846 
L 338.323524 115.693121 
L 338.671258 118.800656 
L 338.748533 118.937279 
L 338.787 118.907637 
L 338.902401 118.440074 
L 339.171671 115.753214 
L 339.515688 112.677592 
L 339.592136 112.540162 
L 339.630357 112.568286 
L 339.745018 113.029483 
L 340.012562 115.696026 
L 340.354651 118.754383 
L 340.430671 118.890114 
L 340.468504 118.861788 
L 340.582003 118.404906 
L 340.846835 115.767374 
L 341.187085 112.721728 
L 341.262696 112.586226 
L 341.300271 112.614237 
L 341.412997 113.067798 
L 341.676024 115.687422 
L 342.013161 118.708333 
L 342.08808 118.844906 
L 342.125467 118.818268 
L 342.237629 118.369703 
L 342.49934 115.764651 
L 342.87107 112.667331 
L 342.94533 112.656601 
L 343.05659 113.100323 
L 343.316199 115.682125 
L 343.686022 118.765199 
L 343.759794 118.775568 
L 343.87016 118.335243 
L 344.12768 115.774956 
L 344.494904 112.709772 
L 344.568212 112.698171 
L 344.677968 113.134664 
L 344.934067 115.680205 
L 345.298341 118.722785 
L 345.371124 118.735606 
L 345.480192 118.303648 
L 345.734683 115.775846 
L 346.096771 112.75062 
L 346.169055 112.737838 
L 346.27728 113.166074 
L 346.529806 115.67299 
L 346.889789 118.683127 
L 346.961631 118.6963 
L 347.069163 118.271359 
L 347.320071 115.78105 
L 347.677441 112.790167 
L 347.74882 112.775868 
L 347.855749 113.196932 
L 348.105248 115.672161 
L 348.460236 118.64432 
L 348.531137 118.659086 
L 348.637343 118.241808 
L 348.885158 115.784713 
L 349.238155 112.827694 
L 349.308618 112.812811 
L 349.414108 113.226893 
L 349.660251 115.666594 
L 350.011025 118.607322 
L 350.081065 118.622905 
L 350.185953 118.212137 
L 350.430692 115.787097 
L 350.779125 112.864325 
L 350.848724 112.848043 
L 350.952988 113.255266 
L 351.196272 115.66473 
L 351.542671 118.571633 
L 351.611841 118.58813 
L 351.715429 118.18411 
L 351.957136 115.791275 
L 352.301557 112.899203 
L 352.370324 112.882345 
L 352.473297 113.283364 
L 352.713568 115.661304 
L 353.05584 118.537122 
L 353.1242 118.554612 
L 353.226599 118.156779 
L 353.465529 115.792973 
L 353.805753 112.933109 
L 353.873704 112.915236 
L 353.97549 113.309949 
L 354.212991 115.658619 
L 354.551335 118.504018 
L 354.618896 118.522128 
L 354.720076 118.130278 
L 354.956162 115.796348 
L 355.29256 112.965696 
L 355.35974 112.947138 
L 355.460362 113.336113 
L 355.695146 115.656473 
L 356.029568 118.47186 
L 356.096364 118.490864 
L 356.196426 118.104819 
L 356.429905 115.798221 
L 356.762482 112.9972 
L 356.828903 112.97794 
L 356.92839 113.361211 
L 357.160526 115.653767 
L 357.4913 118.440946 
L 357.557358 118.460508 
L 357.590338 118.386783 
L 357.722257 117.582826 
L 358.24897 112.989848 
L 358.314579 113.08082 
L 358.445796 113.879718 
L 358.969652 118.448787 
L 359.034902 118.358724 
L 359.165404 117.564907 
L 359.686474 113.019306 
L 359.751372 113.10854 
L 359.881167 113.897442 
L 360.399451 118.419794 
L 360.464011 118.331437 
L 360.593131 117.547303 
L 361.108671 113.047848 
L 361.172896 113.135329 
L 361.301345 113.914701 
L 361.814218 118.391702 
L 361.878106 118.305019 
L 362.005882 117.530339 
L 362.516118 113.075497 
L 362.579679 113.161391 
L 362.706802 113.931524 
L 363.21442 118.364466 
L 363.277662 118.279384 
L 363.404147 117.513733 
L 363.909203 113.102319 
L 363.972127 113.186628 
L 364.097975 113.947829 
L 364.600517 118.33805 
L 364.663127 118.254475 
L 364.788346 117.497621 
L 365.288396 113.12834 
L 365.350699 113.211172 
L 365.475306 113.963772 
L 365.972899 118.312405 
L 366.034899 118.230308 
L 366.158901 117.48192 
L 366.654085 113.153606 
L 366.715785 113.235005 
L 366.839185 113.979244 
L 367.331991 118.287504 
L 367.393397 118.206791 
L 367.516208 117.466611 
L 368.006662 113.178152 
L 368.067778 113.258176 
L 368.19001 113.994358 
L 368.678151 118.263303 
L 368.73898 118.183944 
L 368.860639 117.451715 
L 369.346503 113.202008 
L 369.407049 113.280723 
L 369.528141 114.009072 
L 370.011755 118.239776 
L 370.072023 118.161702 
L 370.192559 117.437164 
L 370.673952 113.22521 
L 370.733946 113.302653 
L 370.88393 114.301503 
L 371.33314 118.216889 
L 371.363001 118.203627 
L 371.452584 117.868114 
L 371.661611 115.815221 
L 371.959561 113.285194 
L 372.019083 113.260858 
L 372.048811 113.324017 
L 372.197447 114.312852 
L 372.642638 118.194614 
L 372.672234 118.181729 
L 372.76102 117.849922 
L 372.968189 115.816138 
L 373.293028 113.269761 
L 373.351959 113.344818 
L 373.499286 114.323932 
L 373.940565 118.172927 
L 373.969902 118.160398 
L 374.057912 117.832183 
L 374.263269 115.817025 
L 374.585283 113.291163 
L 374.643703 113.365096 
L 374.789753 114.33477 
L 375.22722 118.151799 
L 375.256304 118.139615 
L 375.343559 117.814882 
L 375.547153 115.817821 
L 375.866412 113.312018 
L 375.924334 113.384863 
L 376.06914 114.345355 
L 376.502893 118.131208 
L 376.531732 118.119352 
L 376.61825 117.797995 
L 376.820124 115.818572 
L 377.136698 113.332346 
L 377.194135 113.404143 
L 377.337729 114.355714 
L 377.76786 118.111132 
L 377.796459 118.099592 
L 377.882258 117.781513 
L 378.105256 115.548128 
L 378.105256 115.548128 
" style="fill:none;stroke:#2ca02c;stroke-linecap:square;stroke-width:1.5;"/>
   </g>
   <g id="patch_3">
    <path d="M 58.523438 224.64 
L 58.523438 7.2 
" style="fill:none;stroke:#000000;stroke-linecap:square;stroke-linejoin:miter;stroke-width:0.8;"/>
   </g>
   <g id="patch_4">
    <path d="M 393.323438 224.64 
L 393.323438 7.2 
" style="fill:none;stroke:#000000;stroke-linecap:square;stroke-linejoin:miter;stroke-width:0.8;"/>
   </g>
   <g id="patch_5">
    <path d="M 58.523438 224.64 
L 393.323438 224.64 
" style="fill:none;stroke:#000000;stroke-linecap:square;stroke-linejoin:miter;stroke-width:0.8;"/>
   </g>
   <g id="patch_6">
    <path d="M 58.523438 7.2 
L 393.323438 7.2 
" style="fill:none;stroke:#000000;stroke-linecap:square;stroke-linejoin:miter;stroke-width:0.8;"/>
   </g>
   <g id="legend_1">
    <g id="patch_7">
     <path d="M 65.523438 219.64 
L 114.790625 219.64 
Q 116.790625 219.64 116.790625 217.64 
L 116.790625 173.77125 
Q 116.790625 171.77125 114.790625 171.77125 
L 65.523438 171.77125 
Q 63.523438 171.77125 63.523438 173.77125 
L 63.523438 217.64 
Q 63.523438 219.64 65.523438 219.64 
z
" style="fill:#ffffff;opacity:0.8;stroke:#cccccc;stroke-linejoin:miter;"/>
    </g>
    <g id="line2d_22">
     <path d="M 67.523438 179.869687 
L 87.523438 179.869687 
" style="fill:none;stroke:#1f77b4;stroke-linecap:square;stroke-width:1.5;"/>
    </g>
    <g id="line2d_23"/>
    <g id="text_21">
     <!-- S_x -->
     <g transform="translate(95.523438 183.369687)scale(0.1 -0.1)">
      <defs>
       <path d="M 3263 -1063 
L 3263 -1509 
L -63 -1509 
L -63 -1063 
L 3263 -1063 
z
" id="DejaVuSans-5f" transform="scale(0.015625)"/>
       <path d="M 3513 3500 
L 2247 1797 
L 3578 0 
L 2900 0 
L 1881 1375 
L 863 0 
L 184 0 
L 1544 1831 
L 300 3500 
L 978 3500 
L 1906 2253 
L 2834 3500 
L 3513 3500 
z
" id="DejaVuSans-78" transform="scale(0.015625)"/>
      </defs>
      <use xlink:href="#DejaVuSans-53"/>
      <use x="63.476562" xlink:href="#DejaVuSans-5f"/>
      <use x="113.476562" xlink:href="#DejaVuSans-78"/>
     </g>
    </g>
    <g id="line2d_24">
     <path d="M 67.523438 194.825938 
L 87.523438 194.825938 
" style="fill:none;stroke:#ff7f0e;stroke-linecap:square;stroke-width:1.5;"/>
    </g>
    <g id="line2d_25"/>
    <g id="text_22">
     <!-- S_y -->
     <g transform="translate(95.523438 198.325938)scale(0.1 -0.1)">
      <defs>
       <path d="M 2059 -325 
Q 1816 -950 1584 -1140 
Q 1353 -1331 966 -1331 
L 506 -1331 
L 506 -850 
L 844 -850 
Q 1081 -850 1212 -737 
Q 1344 -625 1503 -206 
L 1606 56 
L 191 3500 
L 800 3500 
L 1894 763 
L 2988 3500 
L 3597 3500 
L 2059 -325 
z
" id="DejaVuSans-79" transform="scale(0.015625)"/>
      </defs>
      <use xlink:href="#DejaVuSans-53"/>
      <use x="63.476562" xlink:href="#DejaVuSans-5f"/>
      <use x="113.476562" xlink:href="#DejaVuSans-79"/>
     </g>
    </g>
    <g id="line2d_26">
     <path d="M 67.523438 209.782188 
L 87.523438 209.782188 
" style="fill:none;stroke:#2ca02c;stroke-linecap:square;stroke-width:1.5;"/>
    </g>
    <g id="line2d_27"/>
    <g id="text_23">
     <!-- S_z -->
     <g transform="translate(95.523438 213.282188)scale(0.1 -0.1)">
      <defs>
       <path d="M 353 3500 
L 3084 3500 
L 3084 2975 
L 922 459 
L 3084 459 
L 3084 0 
L 275 0 
L 275 525 
L 2438 3041 
L 353 3041 
L 353 3500 
z
" id="DejaVuSans-7a" transform="scale(0.015625)"/>
      </defs>
      <use xlink:href="#DejaVuSans-53"/>
      <use x="63.476562" xlink:href="#DejaVuSans-5f"/>
      <use x="113.476562" xlink:href="#DejaVuSans-7a"/>
     </g>
    </g>
   </g>
  </g>
 </g>
 <defs>
  <clipPath id="p4dc2e2ece8">
   <rect height="217.44" width="334.8" x="58.523438" y="7.2"/>
  </clipPath>
 </defs>
</svg>